<svg width="359" height="148" viewBox="0 0 359 148" fill="none" xmlns="http://www.w3.org/2000/svg">
<path fill-rule="evenodd" clip-rule="evenodd" d="M74 148C114.869 148 148 114.869 148 74C148 33.1309 114.869 0 74 0C33.1309 0 0 33.1309 0 74C0 114.869 33.1309 148 74 148ZM74.4485 126.858C103.676 126.858 127.37 103.165 127.37 73.9371C127.37 44.7096 103.676 21.0159 74.4485 21.0159C45.2209 21.0159 21.5273 44.7096 21.5273 73.9371C21.5273 103.165 45.2209 126.858 74.4485 126.858Z" fill="#F6F6F6"/>
<path fill-rule="evenodd" clip-rule="evenodd" d="M74 148C114.869 148 148 114.869 148 74C148 33.1309 114.869 0 74 0C33.1309 0 0 33.1309 0 74C0 114.869 33.1309 148 74 148ZM74.4485 126.858C103.676 126.858 127.37 103.165 127.37 73.9371C127.37 44.7096 103.676 21.0159 74.4485 21.0159C45.2209 21.0159 21.5273 44.7096 21.5273 73.9371C21.5273 103.165 45.2209 126.858 74.4485 126.858Z" fill="#CFBDFF"/>
<mask id="mask0_958_754" style="mask-type:alpha" maskUnits="userSpaceOnUse" x="0" y="0" width="148" height="148">
<path fill-rule="evenodd" clip-rule="evenodd" d="M74 148C114.869 148 148 114.869 148 74C148 33.1309 114.869 0 74 0C33.1309 0 0 33.1309 0 74C0 114.869 33.1309 148 74 148ZM74.4485 126.858C103.676 126.858 127.37 103.165 127.37 73.9371C127.37 44.7096 103.676 21.0159 74.4485 21.0159C45.2209 21.0159 21.5273 44.7096 21.5273 73.9371C21.5273 103.165 45.2209 126.858 74.4485 126.858Z" fill="#CFBDFF"/>
</mask>
<g mask="url(#mask0_958_754)">
<path d="M69.6719 73.9999L175 89.4999L130 150.5L37.4999 172.5L-33.5001 57.9999L69.6719 -26.2362L159.957 34.5482L69.6719 73.9999Z" fill="#D6DEB5"/>
<path d="M73.4998 76.5L156 33L161.5 48.9999L161.5 71.9274L73.4998 76.5Z" fill="#F6F6F6"/>
</g>
<circle cx="177" cy="38" r="7" fill="#D6DEB5"/>
<path d="M193.82 43.1392C193.108 43.1392 192.478 43.0166 191.931 42.7713C191.387 42.526 190.961 42.188 190.653 41.7571C190.345 41.3262 190.193 40.8357 190.196 40.2855C190.193 39.8546 190.28 39.4586 190.459 39.0973C190.642 38.7327 190.889 38.4295 191.2 38.1875C191.512 37.9422 191.86 37.7865 192.244 37.7202V37.6605C191.737 37.5379 191.331 37.2661 191.026 36.8452C190.721 36.4242 190.57 35.9403 190.574 35.3935C190.57 34.8731 190.708 34.4091 190.986 34.0014C191.268 33.5904 191.654 33.2673 192.145 33.032C192.635 32.7966 193.194 32.679 193.82 32.679C194.44 32.679 194.993 32.7983 195.481 33.0369C195.971 33.2723 196.357 33.5954 196.639 34.0064C196.921 34.4141 197.063 34.8764 197.067 35.3935C197.063 35.9403 196.907 36.4242 196.599 36.8452C196.291 37.2661 195.89 37.5379 195.396 37.6605V37.7202C195.777 37.7865 196.12 37.9422 196.425 38.1875C196.733 38.4295 196.979 38.7327 197.161 39.0973C197.347 39.4586 197.441 39.8546 197.444 40.2855C197.441 40.8357 197.285 41.3262 196.977 41.7571C196.669 42.188 196.241 42.526 195.694 42.7713C195.151 43.0166 194.526 43.1392 193.82 43.1392ZM193.82 41.8814C194.241 41.8814 194.606 41.8118 194.914 41.6726C195.222 41.5301 195.461 41.3329 195.63 41.081C195.799 40.8258 195.885 40.5275 195.888 40.1861C195.885 39.8314 195.792 39.5182 195.61 39.2464C195.431 38.9747 195.187 38.7609 194.879 38.6051C194.571 38.4493 194.218 38.3714 193.82 38.3714C193.419 38.3714 193.063 38.4493 192.751 38.6051C192.44 38.7609 192.194 38.9747 192.015 39.2464C191.836 39.5182 191.749 39.8314 191.752 40.1861C191.749 40.5275 191.83 40.8258 191.996 41.081C192.165 41.3329 192.405 41.5301 192.716 41.6726C193.028 41.8118 193.396 41.8814 193.82 41.8814ZM193.82 37.1435C194.158 37.1435 194.458 37.0755 194.72 36.9396C194.982 36.8037 195.187 36.6148 195.336 36.3729C195.489 36.1309 195.567 35.8475 195.57 35.5227C195.567 35.2045 195.491 34.9261 195.341 34.6875C195.196 34.4489 194.992 34.2649 194.73 34.1357C194.468 34.0031 194.165 33.9368 193.82 33.9368C193.469 33.9368 193.161 34.0031 192.895 34.1357C192.634 34.2649 192.43 34.4489 192.284 34.6875C192.138 34.9261 192.067 35.2045 192.07 35.5227C192.067 35.8475 192.14 36.1309 192.289 36.3729C192.438 36.6148 192.644 36.8037 192.905 36.9396C193.171 37.0755 193.475 37.1435 193.82 37.1435ZM199.012 41.0114V39.7685L203.412 32.8182H204.391V34.6477H203.77L200.623 39.6293V39.7088H206.653V41.0114H199.012ZM203.839 43V40.6335L203.849 40.0668V32.8182H205.306V43H203.839ZM213.7 41.0909V40.554C213.7 40.1695 213.78 39.8182 213.939 39.5C214.101 39.1785 214.337 38.9216 214.645 38.7294C214.956 38.5339 215.333 38.4361 215.773 38.4361C216.224 38.4361 216.602 38.5322 216.907 38.7244C217.212 38.9167 217.442 39.1735 217.598 39.495C217.757 39.8165 217.837 40.1695 217.837 40.554V41.0909C217.837 41.4754 217.757 41.8284 217.598 42.1499C217.439 42.468 217.205 42.7249 216.897 42.9205C216.592 43.1127 216.218 43.2088 215.773 43.2088C215.326 43.2088 214.948 43.1127 214.64 42.9205C214.332 42.7249 214.098 42.468 213.939 42.1499C213.78 41.8284 213.7 41.4754 213.7 41.0909ZM214.859 40.554V41.0909C214.859 41.3759 214.927 41.6345 215.062 41.8665C215.198 42.0985 215.435 42.2145 215.773 42.2145C216.108 42.2145 216.342 42.0985 216.474 41.8665C216.607 41.6345 216.673 41.3759 216.673 41.0909V40.554C216.673 40.2689 216.609 40.0104 216.479 39.7784C216.353 39.5464 216.118 39.4304 215.773 39.4304C215.442 39.4304 215.207 39.5464 215.067 39.7784C214.928 40.0104 214.859 40.2689 214.859 40.554ZM208.58 35.2642V34.7273C208.58 34.3428 208.659 33.9898 208.818 33.6683C208.981 33.3468 209.216 33.09 209.524 32.8977C209.836 32.7055 210.212 32.6094 210.653 32.6094C211.103 32.6094 211.481 32.7055 211.786 32.8977C212.091 33.09 212.321 33.3468 212.477 33.6683C212.633 33.9898 212.711 34.3428 212.711 34.7273V35.2642C212.711 35.6487 212.631 36.0017 212.472 36.3232C212.317 36.6413 212.085 36.8982 211.776 37.0938C211.471 37.286 211.097 37.3821 210.653 37.3821C210.202 37.3821 209.822 37.286 209.514 37.0938C209.209 36.8982 208.977 36.6413 208.818 36.3232C208.659 36.0017 208.58 35.6487 208.58 35.2642ZM209.743 34.7273V35.2642C209.743 35.5492 209.809 35.8078 209.942 36.0398C210.078 36.2718 210.315 36.3878 210.653 36.3878C210.984 36.3878 211.216 36.2718 211.349 36.0398C211.485 35.8078 211.553 35.5492 211.553 35.2642V34.7273C211.553 34.4422 211.488 34.1837 211.359 33.9517C211.229 33.7197 210.994 33.6037 210.653 33.6037C210.321 33.6037 210.086 33.7197 209.947 33.9517C209.811 34.1837 209.743 34.4422 209.743 34.7273ZM209.052 43L216.052 32.8182H217.24L210.24 43H209.052Z" fill="#6D23F9"/>
<path d="M244.575 27.6293H243.024C242.964 27.2978 242.853 27.0062 242.691 26.7543C242.529 26.5024 242.33 26.2886 242.094 26.1129C241.859 25.9373 241.596 25.8047 241.304 25.7152C241.016 25.6257 240.709 25.581 240.384 25.581C239.798 25.581 239.272 25.7285 238.808 26.0234C238.348 26.3184 237.983 26.7509 237.714 27.321C237.449 27.8911 237.317 28.5871 237.317 29.4091C237.317 30.2377 237.449 30.937 237.714 31.5071C237.983 32.0772 238.349 32.508 238.813 32.7997C239.277 33.0914 239.799 33.2372 240.379 33.2372C240.701 33.2372 241.006 33.1941 241.294 33.108C241.586 33.0185 241.849 32.8875 242.085 32.7152C242.32 32.5429 242.519 32.3324 242.681 32.0838C242.847 31.8319 242.961 31.5436 243.024 31.2188L244.575 31.2237C244.492 31.7242 244.332 32.1849 244.093 32.6058C243.858 33.0234 243.554 33.3847 243.183 33.6896C242.815 33.9912 242.394 34.2249 241.92 34.3906C241.446 34.5563 240.929 34.6392 240.369 34.6392C239.488 34.6392 238.702 34.4304 238.013 34.0128C237.323 33.5919 236.78 32.9903 236.382 32.2081C235.988 31.4259 235.79 30.4929 235.79 29.4091C235.79 28.322 235.989 27.389 236.387 26.6101C236.785 25.8279 237.328 25.228 238.018 24.8104C238.707 24.3894 239.491 24.179 240.369 24.179C240.91 24.179 241.413 24.2569 241.881 24.4126C242.351 24.5651 242.774 24.7905 243.148 25.0888C243.523 25.3838 243.833 25.745 244.078 26.1726C244.323 26.5968 244.489 27.0824 244.575 27.6293ZM248.517 34.669C248.033 34.669 247.595 34.5795 247.204 34.4006C246.813 34.2183 246.503 33.9548 246.274 33.6101C246.049 33.2654 245.936 32.8428 245.936 32.3423C245.936 31.9115 246.019 31.5568 246.185 31.2784C246.351 31 246.574 30.7796 246.856 30.6172C247.138 30.4548 247.453 30.3321 247.801 30.2493C248.149 30.1664 248.503 30.1035 248.865 30.0604C249.322 30.0073 249.693 29.9643 249.978 29.9311C250.263 29.8946 250.47 29.8366 250.6 29.7571C250.729 29.6776 250.794 29.5483 250.794 29.3693V29.3345C250.794 28.9003 250.671 28.5639 250.426 28.3253C250.184 28.0866 249.822 27.9673 249.342 27.9673C248.841 27.9673 248.447 28.0784 248.159 28.3004C247.874 28.5192 247.676 28.7628 247.567 29.0312L246.17 28.7131C246.336 28.2491 246.578 27.8745 246.896 27.5895C247.217 27.3011 247.587 27.0923 248.004 26.9631C248.422 26.8305 248.861 26.7642 249.322 26.7642C249.627 26.7642 249.95 26.8007 250.291 26.8736C250.636 26.9432 250.958 27.0724 251.256 27.2614C251.557 27.4503 251.804 27.7204 251.997 28.0717C252.189 28.4197 252.285 28.8722 252.285 29.429V34.5H250.833V33.456H250.774C250.677 33.6482 250.533 33.8371 250.341 34.0227C250.149 34.2083 249.902 34.3625 249.6 34.4851C249.299 34.6077 248.937 34.669 248.517 34.669ZM248.84 33.4759C249.251 33.4759 249.602 33.3946 249.894 33.2322C250.189 33.0698 250.412 32.8577 250.565 32.5959C250.721 32.3307 250.798 32.0473 250.798 31.7457V30.7614C250.745 30.8144 250.643 30.8641 250.49 30.9105C250.341 30.9536 250.17 30.9917 249.978 31.0249C249.786 31.0547 249.599 31.0829 249.416 31.1094C249.234 31.1326 249.082 31.1525 248.959 31.169C248.671 31.2055 248.407 31.2668 248.169 31.353C247.933 31.4392 247.744 31.5634 247.602 31.7259C247.463 31.8849 247.393 32.0971 247.393 32.3622C247.393 32.7301 247.529 33.0085 247.801 33.1974C248.072 33.383 248.419 33.4759 248.84 33.4759ZM254.384 34.5V24.3182H255.871V28.1016H255.96C256.046 27.9425 256.171 27.7585 256.333 27.5497C256.496 27.3409 256.721 27.1586 257.009 27.0028C257.298 26.8438 257.679 26.7642 258.153 26.7642C258.769 26.7642 259.319 26.92 259.803 27.2315C260.287 27.5431 260.667 27.9922 260.942 28.5788C261.22 29.1655 261.359 29.8714 261.359 30.6967C261.359 31.522 261.222 32.2296 260.947 32.8196C260.672 33.4062 260.294 33.8587 259.813 34.1768C259.333 34.4917 258.784 34.6491 258.168 34.6491C257.704 34.6491 257.324 34.5713 257.029 34.4155C256.737 34.2597 256.509 34.0774 256.343 33.8686C256.177 33.6598 256.05 33.4742 255.96 33.3118H255.836V34.5H254.384ZM255.841 30.6818C255.841 31.2187 255.919 31.6894 256.075 32.0938C256.23 32.4981 256.456 32.8146 256.751 33.0433C257.046 33.2687 257.407 33.3814 257.835 33.3814C258.279 33.3814 258.65 33.2637 258.948 33.0284C259.246 32.7898 259.472 32.4666 259.624 32.0589C259.78 31.6513 259.858 31.1922 259.858 30.6818C259.858 30.178 259.782 29.7256 259.629 29.3246C259.48 28.9235 259.255 28.607 258.953 28.375C258.655 28.143 258.282 28.027 257.835 28.027C257.404 28.027 257.039 28.138 256.741 28.3601C256.446 28.5821 256.222 28.892 256.07 29.2898C255.917 29.6875 255.841 30.1515 255.841 30.6818ZM266.32 34.6541C265.567 34.6541 264.919 34.4934 264.376 34.1719C263.836 33.8471 263.418 33.3913 263.123 32.8047C262.831 32.2147 262.686 31.5237 262.686 30.7315C262.686 29.9493 262.831 29.2599 263.123 28.6634C263.418 28.0668 263.829 27.6011 264.356 27.2663C264.886 26.9316 265.506 26.7642 266.215 26.7642C266.646 26.7642 267.064 26.8355 267.468 26.978C267.873 27.1205 268.235 27.3442 268.557 27.6491C268.878 27.9541 269.132 28.3501 269.318 28.8374C269.503 29.3213 269.596 29.9096 269.596 30.6023V31.1293H263.526V30.0156H268.139C268.139 29.6245 268.06 29.2782 267.901 28.9766C267.742 28.6716 267.518 28.4313 267.23 28.2557C266.945 28.08 266.61 27.9922 266.225 27.9922C265.808 27.9922 265.443 28.0949 265.132 28.3004C264.823 28.5026 264.585 28.7678 264.416 29.0959C264.25 29.4207 264.167 29.7737 264.167 30.1548V31.0249C264.167 31.5353 264.257 31.9695 264.436 32.3274C264.618 32.6854 264.871 32.9588 265.196 33.1477C265.521 33.3333 265.901 33.4261 266.335 33.4261C266.616 33.4261 266.873 33.3864 267.105 33.3068C267.337 33.224 267.538 33.1013 267.707 32.9389C267.876 32.7765 268.005 32.576 268.095 32.3374L269.502 32.5909C269.389 33.0052 269.187 33.3681 268.895 33.6797C268.607 33.9879 268.244 34.2282 267.806 34.4006C267.372 34.5696 266.877 34.6541 266.32 34.6541ZM271.245 34.5V26.8636H272.682V28.0767H272.762C272.901 27.6657 273.146 27.3426 273.498 27.1072C273.852 26.8686 274.253 26.7493 274.701 26.7493C274.793 26.7493 274.903 26.7526 275.029 26.7592C275.158 26.7659 275.259 26.7741 275.332 26.7841V28.206C275.272 28.1894 275.166 28.1712 275.014 28.1513C274.861 28.1281 274.709 28.1165 274.556 28.1165C274.205 28.1165 273.892 28.1911 273.617 28.3402C273.345 28.486 273.13 28.6899 272.971 28.9517C272.811 29.2102 272.732 29.5052 272.732 29.8366V34.5H271.245ZM278.105 29.9659V34.5H276.618V26.8636H278.045V28.1065H278.14C278.315 27.7022 278.59 27.3774 278.965 27.1321C279.343 26.8868 279.818 26.7642 280.392 26.7642C280.912 26.7642 281.368 26.8736 281.759 27.0923C282.15 27.3078 282.453 27.6293 282.669 28.0568C282.884 28.4844 282.992 29.013 282.992 29.6428V34.5H281.506V29.8217C281.506 29.2682 281.361 28.8357 281.073 28.5241C280.785 28.2093 280.389 28.0518 279.885 28.0518C279.54 28.0518 279.233 28.1264 278.965 28.2756C278.7 28.4247 278.489 28.6435 278.334 28.9318C278.181 29.2169 278.105 29.5616 278.105 29.9659ZM288.277 34.6541C287.524 34.6541 286.876 34.4934 286.333 34.1719C285.793 33.8471 285.375 33.3913 285.08 32.8047C284.788 32.2147 284.643 31.5237 284.643 30.7315C284.643 29.9493 284.788 29.2599 285.08 28.6634C285.375 28.0668 285.786 27.6011 286.313 27.2663C286.843 26.9316 287.463 26.7642 288.172 26.7642C288.603 26.7642 289.021 26.8355 289.425 26.978C289.83 27.1205 290.193 27.3442 290.514 27.6491C290.836 27.9541 291.089 28.3501 291.275 28.8374C291.46 29.3213 291.553 29.9096 291.553 30.6023V31.1293H285.483V30.0156H290.096C290.096 29.6245 290.017 29.2782 289.858 28.9766C289.699 28.6716 289.475 28.4313 289.187 28.2557C288.902 28.08 288.567 27.9922 288.182 27.9922C287.765 27.9922 287.4 28.0949 287.089 28.3004C286.78 28.5026 286.542 28.7678 286.373 29.0959C286.207 29.4207 286.124 29.7737 286.124 30.1548V31.0249C286.124 31.5353 286.214 31.9695 286.393 32.3274C286.575 32.6854 286.828 32.9588 287.153 33.1477C287.478 33.3333 287.858 33.4261 288.292 33.4261C288.573 33.4261 288.83 33.3864 289.062 33.3068C289.294 33.224 289.495 33.1013 289.664 32.9389C289.833 32.7765 289.962 32.576 290.052 32.3374L291.459 32.5909C291.346 33.0052 291.144 33.3681 290.852 33.6797C290.564 33.9879 290.201 34.2282 289.763 34.4006C289.329 34.5696 288.834 34.6541 288.277 34.6541ZM296.767 26.8636V28.0568H292.596V26.8636H296.767ZM293.714 25.0341H295.201V32.2578C295.201 32.5462 295.244 32.7633 295.33 32.9091C295.416 33.0516 295.527 33.1494 295.663 33.2024C295.803 33.2521 295.953 33.277 296.116 33.277C296.235 33.277 296.339 33.2687 296.429 33.2521C296.518 33.2356 296.588 33.2223 296.638 33.2124L296.906 34.4403C296.82 34.4735 296.697 34.5066 296.538 34.5398C296.379 34.5762 296.18 34.5961 295.942 34.5994C295.551 34.6061 295.186 34.5365 294.848 34.3906C294.51 34.2448 294.237 34.0194 294.028 33.7145C293.819 33.4096 293.714 33.0268 293.714 32.5661V25.0341ZM241.672 43.9929C241.619 43.5223 241.4 43.1577 241.016 42.8991C240.631 42.6373 240.147 42.5064 239.564 42.5064C239.146 42.5064 238.785 42.5727 238.48 42.7053C238.175 42.8345 237.938 43.0135 237.769 43.2422C237.603 43.4676 237.521 43.7244 237.521 44.0128C237.521 44.2547 237.577 44.4635 237.69 44.6392C237.806 44.8149 237.956 44.9624 238.142 45.0817C238.331 45.1977 238.533 45.2955 238.749 45.375C238.964 45.4512 239.171 45.5142 239.37 45.5639L240.364 45.8224C240.689 45.902 241.022 46.0097 241.364 46.1456C241.705 46.2815 242.022 46.4605 242.313 46.6825C242.605 46.9046 242.84 47.1797 243.019 47.5078C243.201 47.8359 243.293 48.2287 243.293 48.6861C243.293 49.2628 243.143 49.7749 242.845 50.2223C242.55 50.6697 242.121 51.0227 241.558 51.2812C240.997 51.5398 240.32 51.669 239.524 51.669C238.762 51.669 238.102 51.5481 237.545 51.3061C236.989 51.0642 236.553 50.7211 236.238 50.277C235.923 49.8295 235.749 49.2992 235.716 48.6861H237.257C237.287 49.054 237.406 49.3606 237.615 49.6058C237.827 49.8478 238.097 50.0284 238.425 50.1477C238.757 50.2637 239.12 50.3217 239.514 50.3217C239.948 50.3217 240.335 50.2538 240.673 50.1179C241.014 49.9787 241.282 49.7865 241.478 49.5412C241.674 49.2926 241.771 49.0026 241.771 48.6712C241.771 48.3696 241.685 48.1226 241.513 47.9304C241.344 47.7382 241.113 47.5791 240.822 47.4531C240.533 47.3272 240.207 47.2161 239.842 47.12L238.639 46.7919C237.824 46.5698 237.178 46.2434 236.7 45.8125C236.226 45.3816 235.989 44.8116 235.989 44.1023C235.989 43.5156 236.148 43.0036 236.467 42.5661C236.785 42.1286 237.216 41.7888 237.759 41.5469C238.303 41.3016 238.916 41.179 239.599 41.179C240.288 41.179 240.896 41.3 241.423 41.5419C241.954 41.7839 242.371 42.117 242.676 42.5412C242.981 42.9621 243.14 43.446 243.153 43.9929H241.672ZM247.231 51.669C246.747 51.669 246.31 51.5795 245.919 51.4006C245.528 51.2183 245.218 50.9548 244.989 50.6101C244.764 50.2654 244.651 49.8428 244.651 49.3423C244.651 48.9115 244.734 48.5568 244.9 48.2784C245.065 48 245.289 47.7796 245.571 47.6172C245.853 47.4548 246.167 47.3321 246.515 47.2493C246.863 47.1664 247.218 47.1035 247.579 47.0604C248.037 47.0073 248.408 46.9643 248.693 46.9311C248.978 46.8946 249.185 46.8366 249.314 46.7571C249.444 46.6776 249.508 46.5483 249.508 46.3693V46.3345C249.508 45.9003 249.386 45.5639 249.14 45.3253C248.898 45.0866 248.537 44.9673 248.057 44.9673C247.556 44.9673 247.162 45.0784 246.873 45.3004C246.588 45.5192 246.391 45.7628 246.282 46.0312L244.885 45.7131C245.05 45.2491 245.292 44.8745 245.611 44.5895C245.932 44.3011 246.302 44.0923 246.719 43.9631C247.137 43.8305 247.576 43.7642 248.037 43.7642C248.342 43.7642 248.665 43.8007 249.006 43.8736C249.351 43.9432 249.672 44.0724 249.971 44.2614C250.272 44.4503 250.519 44.7204 250.711 45.0717C250.904 45.4197 251 45.8722 251 46.429V51.5H249.548V50.456H249.488C249.392 50.6482 249.248 50.8371 249.056 51.0227C248.864 51.2083 248.617 51.3625 248.315 51.4851C248.014 51.6077 247.652 51.669 247.231 51.669ZM247.555 50.4759C247.965 50.4759 248.317 50.3946 248.608 50.2322C248.903 50.0698 249.127 49.8577 249.28 49.5959C249.435 49.3307 249.513 49.0473 249.513 48.7457V47.7614C249.46 47.8144 249.358 47.8641 249.205 47.9105C249.056 47.9536 248.885 47.9917 248.693 48.0249C248.501 48.0547 248.314 48.0829 248.131 48.1094C247.949 48.1326 247.796 48.1525 247.674 48.169C247.385 48.2055 247.122 48.2668 246.883 48.353C246.648 48.4392 246.459 48.5634 246.317 48.7259C246.177 48.8849 246.108 49.0971 246.108 49.3622C246.108 49.7301 246.244 50.0085 246.515 50.1974C246.787 50.383 247.134 50.4759 247.555 50.4759ZM257.817 48.3331V43.8636H259.309V51.5H257.847V50.1776H257.767C257.592 50.5852 257.31 50.925 256.922 51.1967C256.538 51.4652 256.059 51.5994 255.485 51.5994C254.995 51.5994 254.561 51.4917 254.183 51.2763C253.808 51.0575 253.513 50.7344 253.298 50.3068C253.086 49.8793 252.98 49.3506 252.98 48.7209V43.8636H254.466V48.5419C254.466 49.0623 254.61 49.4766 254.899 49.7848C255.187 50.093 255.562 50.2472 256.022 50.2472C256.301 50.2472 256.578 50.1776 256.853 50.0384C257.131 49.8991 257.361 49.6887 257.544 49.407C257.729 49.1252 257.82 48.7673 257.817 48.3331ZM267.839 43.8636L265.069 51.5H263.479L260.704 43.8636H262.3L264.234 49.7401H264.314L266.243 43.8636H267.839ZM269.236 51.5V43.8636H270.722V51.5H269.236ZM269.986 42.6854C269.728 42.6854 269.506 42.5992 269.32 42.4268C269.138 42.2512 269.047 42.0424 269.047 41.8004C269.047 41.5552 269.138 41.3464 269.32 41.174C269.506 40.9983 269.728 40.9105 269.986 40.9105C270.245 40.9105 270.465 40.9983 270.648 41.174C270.833 41.3464 270.926 41.5552 270.926 41.8004C270.926 42.0424 270.833 42.2512 270.648 42.4268C270.465 42.5992 270.245 42.6854 269.986 42.6854ZM275.924 54.5227C275.317 54.5227 274.795 54.4432 274.358 54.2841C273.923 54.125 273.569 53.9145 273.294 53.6527C273.019 53.3909 272.813 53.1042 272.677 52.7926L273.955 52.2656C274.044 52.4115 274.164 52.5656 274.313 52.728C274.465 52.8937 274.671 53.0346 274.929 53.1506C275.191 53.2666 275.528 53.3246 275.939 53.3246C276.502 53.3246 276.968 53.187 277.336 52.9119C277.703 52.6402 277.887 52.206 277.887 51.6094V50.108H277.793C277.703 50.2704 277.574 50.451 277.405 50.6499C277.239 50.8487 277.011 51.0211 276.719 51.1669C276.427 51.3127 276.048 51.3857 275.581 51.3857C274.977 51.3857 274.434 51.2448 273.95 50.9631C273.469 50.678 273.088 50.2588 272.806 49.7053C272.528 49.1484 272.389 48.464 272.389 47.652C272.389 46.84 272.526 46.1439 272.801 45.5639C273.08 44.9839 273.461 44.5398 273.945 44.2315C274.429 43.92 274.977 43.7642 275.591 43.7642C276.065 43.7642 276.447 43.8438 276.739 44.0028C277.031 44.1586 277.258 44.3409 277.42 44.5497C277.586 44.7585 277.713 44.9425 277.803 45.1016H277.912V43.8636H279.369V51.669C279.369 52.3253 279.217 52.8639 278.912 53.2848C278.607 53.7057 278.194 54.0173 277.674 54.2195C277.157 54.4216 276.573 54.5227 275.924 54.5227ZM275.909 50.1527C276.336 50.1527 276.698 50.0533 276.993 49.8544C277.291 49.6522 277.516 49.3639 277.669 48.9893C277.824 48.6115 277.902 48.1591 277.902 47.6321C277.902 47.1184 277.826 46.666 277.674 46.2749C277.521 45.8838 277.297 45.5788 277.002 45.3601C276.708 45.138 276.343 45.027 275.909 45.027C275.461 45.027 275.088 45.143 274.79 45.375C274.492 45.6037 274.266 45.9152 274.114 46.3097C273.965 46.7041 273.89 47.1449 273.89 47.6321C273.89 48.1326 273.967 48.5717 274.119 48.9496C274.271 49.3274 274.497 49.6224 274.795 49.8345C275.097 50.0466 275.468 50.1527 275.909 50.1527ZM282.849 46.9659V51.5H281.363V43.8636H282.789V45.1065H282.884C283.06 44.7022 283.335 44.3774 283.709 44.1321C284.087 43.8868 284.563 43.7642 285.136 43.7642C285.656 43.7642 286.112 43.8736 286.503 44.0923C286.894 44.3078 287.198 44.6293 287.413 45.0568C287.628 45.4844 287.736 46.013 287.736 46.6428V51.5H286.25V46.8217C286.25 46.2682 286.105 45.8357 285.817 45.5241C285.529 45.2093 285.133 45.0518 284.629 45.0518C284.284 45.0518 283.978 45.1264 283.709 45.2756C283.444 45.4247 283.234 45.6435 283.078 45.9318C282.925 46.2169 282.849 46.5616 282.849 46.9659ZM292.946 51.6541C292.23 51.6541 291.606 51.4901 291.072 51.1619C290.538 50.8338 290.124 50.3748 289.829 49.7848C289.534 49.1948 289.387 48.5054 289.387 47.7166C289.387 46.9245 289.534 46.2318 289.829 45.6385C290.124 45.0452 290.538 44.5845 291.072 44.2564C291.606 43.9283 292.23 43.7642 292.946 43.7642C293.662 43.7642 294.287 43.9283 294.821 44.2564C295.354 44.5845 295.769 45.0452 296.064 45.6385C296.359 46.2318 296.506 46.9245 296.506 47.7166C296.506 48.5054 296.359 49.1948 296.064 49.7848C295.769 50.3748 295.354 50.8338 294.821 51.1619C294.287 51.4901 293.662 51.6541 292.946 51.6541ZM292.951 50.4062C293.415 50.4062 293.8 50.2836 294.105 50.0384C294.41 49.7931 294.635 49.4666 294.781 49.0589C294.93 48.6513 295.005 48.2022 295.005 47.7116C295.005 47.2244 294.93 46.777 294.781 46.3693C294.635 45.9583 294.41 45.6286 294.105 45.38C293.8 45.1314 293.415 45.0071 292.951 45.0071C292.484 45.0071 292.096 45.1314 291.788 45.38C291.483 45.6286 291.256 45.9583 291.107 46.3693C290.961 46.777 290.888 47.2244 290.888 47.7116C290.888 48.2022 290.961 48.6513 291.107 49.0589C291.256 49.4666 291.483 49.7931 291.788 50.0384C292.096 50.2836 292.484 50.4062 292.951 50.4062ZM299.652 46.9659V51.5H298.165V43.8636H299.592V45.1065H299.687C299.862 44.7022 300.137 44.3774 300.512 44.1321C300.89 43.8868 301.365 43.7642 301.939 43.7642C302.459 43.7642 302.915 43.8736 303.306 44.0923C303.697 44.3078 304 44.6293 304.216 45.0568C304.431 45.4844 304.539 46.013 304.539 46.6428V51.5H303.052V46.8217C303.052 46.2682 302.908 45.8357 302.62 45.5241C302.331 45.2093 301.935 45.0518 301.432 45.0518C301.087 45.0518 300.78 45.1264 300.512 45.2756C300.247 45.4247 300.036 45.6435 299.881 45.9318C299.728 46.2169 299.652 46.5616 299.652 46.9659Z" fill="#2E2E2E"/>
<path d="M334.92 44.0067C335.247 44.3334 335.773 44.3334 336.1 44.0067L341.64 38.4667C341.9 38.2067 341.9 37.7867 341.64 37.5267L336.1 31.9867C335.773 31.66 335.247 31.66 334.92 31.9867C334.593 32.3134 334.593 32.84 334.92 33.1667L339.747 38L334.913 42.8334C334.593 43.1534 334.593 43.6867 334.92 44.0067Z" fill="black"/>
<circle cx="177" cy="78.5" r="7" fill="#CFBDFF"/>
<path d="M201.04 83.6392C200.586 83.6326 200.138 83.5497 199.698 83.3906C199.26 83.2315 198.862 82.9664 198.504 82.5952C198.146 82.224 197.86 81.7251 197.644 81.0987C197.432 80.4723 197.326 79.6901 197.326 78.7521C197.326 77.8639 197.414 77.075 197.59 76.3857C197.769 75.6963 198.026 75.1146 198.36 74.6406C198.695 74.1634 199.099 73.8004 199.573 73.5518C200.047 73.3033 200.579 73.179 201.169 73.179C201.776 73.179 202.314 73.2983 202.785 73.5369C203.256 73.7756 203.637 74.1054 203.928 74.5263C204.223 74.9472 204.411 75.4261 204.49 75.9631H202.974C202.871 75.5388 202.667 75.1925 202.362 74.924C202.057 74.6555 201.66 74.5213 201.169 74.5213C200.423 74.5213 199.842 74.8461 199.424 75.4957C199.01 76.1454 198.801 77.0485 198.798 78.2053H198.872C199.048 77.9169 199.263 77.6716 199.519 77.4695C199.777 77.264 200.066 77.1065 200.384 76.9972C200.705 76.8845 201.043 76.8281 201.398 76.8281C201.988 76.8281 202.521 76.9723 202.999 77.2607C203.479 77.5457 203.862 77.9401 204.147 78.4439C204.432 78.9477 204.575 79.5244 204.575 80.174C204.575 80.8236 204.427 81.4119 204.132 81.9389C203.841 82.4659 203.43 82.8835 202.899 83.1918C202.369 83.4967 201.749 83.6458 201.04 83.6392ZM201.035 82.3466C201.426 82.3466 201.776 82.2505 202.084 82.0582C202.392 81.866 202.636 81.6075 202.815 81.2827C202.994 80.9579 203.083 80.5949 203.083 80.1939C203.083 79.8028 202.995 79.4465 202.82 79.125C202.647 78.8035 202.409 78.5483 202.104 78.3594C201.802 78.1705 201.458 78.076 201.07 78.076C200.775 78.076 200.501 78.1323 200.249 78.245C200.001 78.3577 199.782 78.5135 199.593 78.7124C199.404 78.9112 199.255 79.1399 199.146 79.3984C199.04 79.6536 198.987 79.9238 198.987 80.2088C198.987 80.59 199.075 80.9429 199.25 81.2678C199.429 81.5926 199.673 81.8544 199.981 82.0533C200.293 82.2488 200.644 82.3466 201.035 82.3466ZM211.7 81.5909V81.054C211.7 80.6695 211.78 80.3182 211.939 80C212.101 79.6785 212.337 79.4216 212.645 79.2294C212.956 79.0339 213.333 78.9361 213.773 78.9361C214.224 78.9361 214.602 79.0322 214.907 79.2244C215.212 79.4167 215.442 79.6735 215.598 79.995C215.757 80.3165 215.837 80.6695 215.837 81.054V81.5909C215.837 81.9754 215.757 82.3284 215.598 82.6499C215.439 82.968 215.205 83.2249 214.897 83.4205C214.592 83.6127 214.218 83.7088 213.773 83.7088C213.326 83.7088 212.948 83.6127 212.64 83.4205C212.332 83.2249 212.098 82.968 211.939 82.6499C211.78 82.3284 211.7 81.9754 211.7 81.5909ZM212.859 81.054V81.5909C212.859 81.8759 212.927 82.1345 213.062 82.3665C213.198 82.5985 213.435 82.7145 213.773 82.7145C214.108 82.7145 214.342 82.5985 214.474 82.3665C214.607 82.1345 214.673 81.8759 214.673 81.5909V81.054C214.673 80.7689 214.609 80.5104 214.479 80.2784C214.353 80.0464 214.118 79.9304 213.773 79.9304C213.442 79.9304 213.207 80.0464 213.067 80.2784C212.928 80.5104 212.859 80.7689 212.859 81.054ZM206.58 75.7642V75.2273C206.58 74.8428 206.659 74.4898 206.818 74.1683C206.981 73.8468 207.216 73.59 207.524 73.3977C207.836 73.2055 208.212 73.1094 208.653 73.1094C209.103 73.1094 209.481 73.2055 209.786 73.3977C210.091 73.59 210.321 73.8468 210.477 74.1683C210.633 74.4898 210.711 74.8428 210.711 75.2273V75.7642C210.711 76.1487 210.631 76.5017 210.472 76.8232C210.317 77.1413 210.085 77.3982 209.776 77.5938C209.471 77.786 209.097 77.8821 208.653 77.8821C208.202 77.8821 207.822 77.786 207.514 77.5938C207.209 77.3982 206.977 77.1413 206.818 76.8232C206.659 76.5017 206.58 76.1487 206.58 75.7642ZM207.743 75.2273V75.7642C207.743 76.0492 207.809 76.3078 207.942 76.5398C208.078 76.7718 208.315 76.8878 208.653 76.8878C208.984 76.8878 209.216 76.7718 209.349 76.5398C209.485 76.3078 209.553 76.0492 209.553 75.7642V75.2273C209.553 74.9422 209.488 74.6837 209.359 74.4517C209.229 74.2197 208.994 74.1037 208.653 74.1037C208.321 74.1037 208.086 74.2197 207.947 74.4517C207.811 74.6837 207.743 74.9422 207.743 75.2273ZM207.052 83.5L214.052 73.3182H215.24L208.24 83.5H207.052Z" fill="#6D23F9"/>
<path d="M234.119 83.5V73.3182H237.748C238.54 73.3182 239.196 73.4624 239.717 73.7507C240.237 74.0391 240.626 74.4335 240.885 74.9339C241.143 75.4311 241.273 75.9912 241.273 76.6143C241.273 77.2408 241.142 77.8042 240.88 78.3047C240.621 78.8018 240.23 79.1963 239.707 79.4879C239.186 79.7763 238.532 79.9205 237.743 79.9205H235.247V78.6179H237.604C238.104 78.6179 238.51 78.5317 238.822 78.3594C239.133 78.1837 239.362 77.9451 239.508 77.6435C239.654 77.3419 239.727 76.9988 239.727 76.6143C239.727 76.2299 239.654 75.8885 239.508 75.5902C239.362 75.2919 239.132 75.0582 238.817 74.8892C238.505 74.7202 238.094 74.6357 237.584 74.6357H235.655V83.5H234.119ZM246.15 83.6541C245.397 83.6541 244.75 83.4934 244.206 83.1719C243.666 82.8471 243.248 82.3913 242.953 81.8047C242.661 81.2147 242.516 80.5237 242.516 79.7315C242.516 78.9493 242.661 78.2599 242.953 77.6634C243.248 77.0668 243.659 76.6011 244.186 76.2663C244.716 75.9316 245.336 75.7642 246.045 75.7642C246.476 75.7642 246.894 75.8355 247.298 75.978C247.703 76.1205 248.066 76.3442 248.387 76.6491C248.709 76.9541 248.962 77.3501 249.148 77.8374C249.333 78.3213 249.426 78.9096 249.426 79.6023V80.1293H243.356V79.0156H247.969C247.969 78.6245 247.89 78.2782 247.731 77.9766C247.572 77.6716 247.348 77.4313 247.06 77.2557C246.775 77.08 246.44 76.9922 246.055 76.9922C245.638 76.9922 245.273 77.0949 244.962 77.3004C244.653 77.5026 244.415 77.7678 244.246 78.0959C244.08 78.4207 243.997 78.7737 243.997 79.1548V80.0249C243.997 80.5353 244.087 80.9695 244.266 81.3274C244.448 81.6854 244.701 81.9588 245.026 82.1477C245.351 82.3333 245.731 82.4261 246.165 82.4261C246.446 82.4261 246.703 82.3864 246.935 82.3068C247.167 82.224 247.368 82.1013 247.537 81.9389C247.706 81.7765 247.835 81.576 247.925 81.3374L249.332 81.5909C249.219 82.0052 249.017 82.3681 248.725 82.6797C248.437 82.9879 248.074 83.2282 247.636 83.4006C247.202 83.5696 246.707 83.6541 246.15 83.6541ZM254.64 75.8636V77.0568H250.469V75.8636H254.64ZM251.588 74.0341H253.074V81.2578C253.074 81.5462 253.117 81.7633 253.203 81.9091C253.289 82.0516 253.401 82.1494 253.536 82.2024C253.676 82.2521 253.826 82.277 253.989 82.277C254.108 82.277 254.213 82.2687 254.302 82.2521C254.392 82.2356 254.461 82.2223 254.511 82.2124L254.779 83.4403C254.693 83.4735 254.57 83.5066 254.411 83.5398C254.252 83.5762 254.053 83.5961 253.815 83.5994C253.424 83.6061 253.059 83.5365 252.721 83.3906C252.383 83.2448 252.11 83.0194 251.901 82.7145C251.692 82.4096 251.588 82.0268 251.588 81.5661V74.0341ZM256.284 83.5V75.8636H257.771V83.5H256.284ZM257.035 74.6854C256.777 74.6854 256.555 74.5992 256.369 74.4268C256.187 74.2512 256.096 74.0424 256.096 73.8004C256.096 73.5552 256.187 73.3464 256.369 73.174C256.555 72.9983 256.777 72.9105 257.035 72.9105C257.294 72.9105 257.514 72.9983 257.696 73.174C257.882 73.3464 257.975 73.5552 257.975 73.8004C257.975 74.0424 257.882 74.2512 257.696 74.4268C257.514 74.5992 257.294 74.6854 257.035 74.6854ZM263.335 75.8636V77.0568H259.164V75.8636H263.335ZM260.283 74.0341H261.769V81.2578C261.769 81.5462 261.812 81.7633 261.899 81.9091C261.985 82.0516 262.096 82.1494 262.232 82.2024C262.371 82.2521 262.522 82.277 262.684 82.277C262.803 82.277 262.908 82.2687 262.997 82.2521C263.087 82.2356 263.156 82.2223 263.206 82.2124L263.475 83.4403C263.388 83.4735 263.266 83.5066 263.107 83.5398C262.948 83.5762 262.749 83.5961 262.51 83.5994C262.119 83.6061 261.754 83.5365 261.416 83.3906C261.078 83.2448 260.805 83.0194 260.596 82.7145C260.387 82.4096 260.283 82.0268 260.283 81.5661V74.0341ZM275.218 75.8636L272.448 83.5H270.857L268.083 75.8636H269.679L271.613 81.7401H271.693L273.622 75.8636H275.218ZM279.646 83.6541C278.894 83.6541 278.246 83.4934 277.702 83.1719C277.162 82.8471 276.744 82.3913 276.449 81.8047C276.158 81.2147 276.012 80.5237 276.012 79.7315C276.012 78.9493 276.158 78.2599 276.449 77.6634C276.744 77.0668 277.155 76.6011 277.682 76.2663C278.212 75.9316 278.832 75.7642 279.542 75.7642C279.972 75.7642 280.39 75.8355 280.794 75.978C281.199 76.1205 281.562 76.3442 281.883 76.6491C282.205 76.9541 282.458 77.3501 282.644 77.8374C282.829 78.3213 282.922 78.9096 282.922 79.6023V80.1293H276.852V79.0156H281.466C281.466 78.6245 281.386 78.2782 281.227 77.9766C281.068 77.6716 280.844 77.4313 280.556 77.2557C280.271 77.08 279.936 76.9922 279.551 76.9922C279.134 76.9922 278.769 77.0949 278.458 77.3004C278.15 77.5026 277.911 77.7678 277.742 78.0959C277.576 78.4207 277.493 78.7737 277.493 79.1548V80.0249C277.493 80.5353 277.583 80.9695 277.762 81.3274C277.944 81.6854 278.198 81.9588 278.522 82.1477C278.847 82.3333 279.227 82.4261 279.661 82.4261C279.943 82.4261 280.199 82.3864 280.431 82.3068C280.663 82.224 280.864 82.1013 281.033 81.9389C281.202 81.7765 281.331 81.576 281.421 81.3374L282.828 81.5909C282.715 82.0052 282.513 82.3681 282.221 82.6797C281.933 82.9879 281.57 83.2282 281.132 83.4006C280.698 83.5696 280.203 83.6541 279.646 83.6541ZM284.572 83.5V75.8636H286.008V77.0767H286.088C286.227 76.6657 286.472 76.3426 286.824 76.1072C287.178 75.8686 287.579 75.7493 288.027 75.7493C288.12 75.7493 288.229 75.7526 288.355 75.7592C288.484 75.7659 288.585 75.7741 288.658 75.7841V77.206C288.599 77.1894 288.492 77.1712 288.34 77.1513C288.188 77.1281 288.035 77.1165 287.883 77.1165C287.531 77.1165 287.218 77.1911 286.943 77.3402C286.671 77.486 286.456 77.6899 286.297 77.9517C286.138 78.2102 286.058 78.5052 286.058 78.8366V83.5H284.572ZM292.53 83.6491C291.913 83.6491 291.363 83.4917 290.879 83.1768C290.399 82.8587 290.021 82.4062 289.746 81.8196C289.474 81.2296 289.338 80.522 289.338 79.6967C289.338 78.8714 289.476 78.1655 289.751 77.5788C290.029 76.9922 290.41 76.5431 290.894 76.2315C291.378 75.92 291.927 75.7642 292.54 75.7642C293.014 75.7642 293.395 75.8438 293.683 76.0028C293.975 76.1586 294.2 76.3409 294.359 76.5497C294.522 76.7585 294.648 76.9425 294.737 77.1016H294.827V73.3182H296.313V83.5H294.862V82.3118H294.737C294.648 82.4742 294.518 82.6598 294.349 82.8686C294.184 83.0774 293.955 83.2597 293.663 83.4155C293.372 83.5713 292.994 83.6491 292.53 83.6491ZM292.858 82.3814C293.286 82.3814 293.647 82.2687 293.942 82.0433C294.24 81.8146 294.465 81.4981 294.618 81.0938C294.774 80.6894 294.852 80.2187 294.852 79.6818C294.852 79.1515 294.775 78.6875 294.623 78.2898C294.47 77.892 294.247 77.5821 293.952 77.3601C293.657 77.138 293.292 77.027 292.858 77.027C292.411 77.027 292.038 77.143 291.739 77.375C291.441 77.607 291.216 77.9235 291.063 78.3246C290.914 78.7256 290.839 79.178 290.839 79.6818C290.839 80.1922 290.916 80.6513 291.068 81.0589C291.221 81.4666 291.446 81.7898 291.744 82.0284C292.046 82.2637 292.417 82.3814 292.858 82.3814ZM301.651 83.6541C300.936 83.6541 300.311 83.4901 299.777 83.1619C299.244 82.8338 298.829 82.3748 298.534 81.7848C298.239 81.1948 298.092 80.5054 298.092 79.7166C298.092 78.9245 298.239 78.2318 298.534 77.6385C298.829 77.0452 299.244 76.5845 299.777 76.2564C300.311 75.9283 300.936 75.7642 301.651 75.7642C302.367 75.7642 302.992 75.9283 303.526 76.2564C304.059 76.5845 304.474 77.0452 304.769 77.6385C305.064 78.2318 305.211 78.9245 305.211 79.7166C305.211 80.5054 305.064 81.1948 304.769 81.7848C304.474 82.3748 304.059 82.8338 303.526 83.1619C302.992 83.4901 302.367 83.6541 301.651 83.6541ZM301.656 82.4062C302.12 82.4062 302.505 82.2836 302.81 82.0384C303.115 81.7931 303.34 81.4666 303.486 81.0589C303.635 80.6513 303.71 80.2022 303.71 79.7116C303.71 79.2244 303.635 78.777 303.486 78.3693C303.34 77.9583 303.115 77.6286 302.81 77.38C302.505 77.1314 302.12 77.0071 301.656 77.0071C301.189 77.0071 300.801 77.1314 300.493 77.38C300.188 77.6286 299.961 77.9583 299.812 78.3693C299.666 78.777 299.593 79.2244 299.593 79.7116C299.593 80.2022 299.666 80.6513 299.812 81.0589C299.961 81.4666 300.188 81.7931 300.493 82.0384C300.801 82.2836 301.189 82.4062 301.656 82.4062ZM310.435 75.8636V77.0568H306.264V75.8636H310.435ZM307.382 74.0341H308.869V81.2578C308.869 81.5462 308.912 81.7633 308.998 81.9091C309.084 82.0516 309.195 82.1494 309.331 82.2024C309.471 82.2521 309.621 82.277 309.784 82.277C309.903 82.277 310.007 82.2687 310.097 82.2521C310.186 82.2356 310.256 82.2223 310.306 82.2124L310.574 83.4403C310.488 83.4735 310.365 83.5066 310.206 83.5398C310.047 83.5762 309.848 83.5961 309.61 83.5994C309.219 83.6061 308.854 83.5365 308.516 83.3906C308.178 83.2448 307.904 83.0194 307.696 82.7145C307.487 82.4096 307.382 82.0268 307.382 81.5661V74.0341Z" fill="#2E2E2E"/>
<path d="M334.92 85.5067C335.247 85.8334 335.773 85.8334 336.1 85.5067L341.64 79.9667C341.9 79.7067 341.9 79.2867 341.64 79.0267L336.1 73.4867C335.773 73.16 335.247 73.16 334.92 73.4867C334.593 73.8134 334.593 74.34 334.92 74.6667L339.747 79.5L334.913 84.3334C334.593 84.6534 334.593 85.1867 334.92 85.5067Z" fill="black"/>
<circle cx="177" cy="114.5" r="7" fill="#F6F6F6"/>
<path d="M194.594 109.318V119.5H193.053V110.859H192.993L190.557 112.45V110.979L193.098 109.318H194.594ZM200.893 119.669C200.108 119.666 199.437 119.459 198.88 119.048C198.323 118.637 197.897 118.038 197.602 117.253C197.307 116.467 197.16 115.521 197.16 114.414C197.16 113.31 197.307 112.367 197.602 111.585C197.9 110.803 198.328 110.206 198.885 109.795C199.445 109.384 200.114 109.179 200.893 109.179C201.672 109.179 202.34 109.386 202.897 109.8C203.454 110.211 203.88 110.808 204.175 111.59C204.473 112.369 204.622 113.31 204.622 114.414C204.622 115.524 204.474 116.472 204.18 117.258C203.885 118.04 203.459 118.638 202.902 119.053C202.345 119.464 201.675 119.669 200.893 119.669ZM200.893 118.342C201.583 118.342 202.121 118.005 202.509 117.332C202.9 116.66 203.096 115.687 203.096 114.414C203.096 113.569 203.006 112.855 202.827 112.271C202.652 111.685 202.398 111.241 202.067 110.939C201.738 110.634 201.347 110.482 200.893 110.482C200.207 110.482 199.669 110.82 199.278 111.496C198.886 112.172 198.689 113.145 198.686 114.414C198.686 115.263 198.774 115.98 198.949 116.567C199.128 117.15 199.382 117.593 199.71 117.894C200.038 118.192 200.433 118.342 200.893 118.342ZM211.7 117.591V117.054C211.7 116.67 211.78 116.318 211.939 116C212.101 115.679 212.337 115.422 212.645 115.229C212.956 115.034 213.333 114.936 213.773 114.936C214.224 114.936 214.602 115.032 214.907 115.224C215.212 115.417 215.442 115.674 215.598 115.995C215.757 116.317 215.837 116.67 215.837 117.054V117.591C215.837 117.975 215.757 118.328 215.598 118.65C215.439 118.968 215.205 119.225 214.897 119.42C214.592 119.613 214.218 119.709 213.773 119.709C213.326 119.709 212.948 119.613 212.64 119.42C212.332 119.225 212.098 118.968 211.939 118.65C211.78 118.328 211.7 117.975 211.7 117.591ZM212.859 117.054V117.591C212.859 117.876 212.927 118.134 213.062 118.366C213.198 118.598 213.435 118.714 213.773 118.714C214.108 118.714 214.342 118.598 214.474 118.366C214.607 118.134 214.673 117.876 214.673 117.591V117.054C214.673 116.769 214.609 116.51 214.479 116.278C214.353 116.046 214.118 115.93 213.773 115.93C213.442 115.93 213.207 116.046 213.067 116.278C212.928 116.51 212.859 116.769 212.859 117.054ZM206.58 111.764V111.227C206.58 110.843 206.659 110.49 206.818 110.168C206.981 109.847 207.216 109.59 207.524 109.398C207.836 109.205 208.212 109.109 208.653 109.109C209.103 109.109 209.481 109.205 209.786 109.398C210.091 109.59 210.321 109.847 210.477 110.168C210.633 110.49 210.711 110.843 210.711 111.227V111.764C210.711 112.149 210.631 112.502 210.472 112.823C210.317 113.141 210.085 113.398 209.776 113.594C209.471 113.786 209.097 113.882 208.653 113.882C208.202 113.882 207.822 113.786 207.514 113.594C207.209 113.398 206.977 113.141 206.818 112.823C206.659 112.502 206.58 112.149 206.58 111.764ZM207.743 111.227V111.764C207.743 112.049 207.809 112.308 207.942 112.54C208.078 112.772 208.315 112.888 208.653 112.888C208.984 112.888 209.216 112.772 209.349 112.54C209.485 112.308 209.553 112.049 209.553 111.764V111.227C209.553 110.942 209.488 110.684 209.359 110.452C209.229 110.22 208.994 110.104 208.653 110.104C208.321 110.104 208.086 110.22 207.947 110.452C207.811 110.684 207.743 110.942 207.743 111.227ZM207.052 119.5L214.052 109.318H215.24L208.24 119.5H207.052Z" fill="#6D23F9"/>
<path d="M234.119 119.5V109.318H240.502V110.641H235.655V113.743H240.169V115.06H235.655V118.178H240.562V119.5H234.119ZM245.999 111.864V113.057H241.828V111.864H245.999ZM242.947 110.034H244.433V117.258C244.433 117.546 244.477 117.763 244.563 117.909C244.649 118.052 244.76 118.149 244.896 118.202C245.035 118.252 245.186 118.277 245.348 118.277C245.468 118.277 245.572 118.269 245.661 118.252C245.751 118.236 245.82 118.222 245.87 118.212L246.139 119.44C246.052 119.473 245.93 119.507 245.771 119.54C245.612 119.576 245.413 119.596 245.174 119.599C244.783 119.606 244.419 119.536 244.08 119.391C243.742 119.245 243.469 119.019 243.26 118.714C243.051 118.41 242.947 118.027 242.947 117.566V110.034ZM250.778 119.654C250.039 119.654 249.403 119.487 248.869 119.152C248.339 118.814 247.931 118.348 247.646 117.755C247.361 117.162 247.219 116.482 247.219 115.717C247.219 114.941 247.365 114.257 247.656 113.663C247.948 113.067 248.359 112.601 248.889 112.266C249.42 111.932 250.044 111.764 250.763 111.764C251.344 111.764 251.861 111.872 252.315 112.087C252.769 112.299 253.135 112.598 253.413 112.982C253.695 113.367 253.862 113.816 253.915 114.33H252.469C252.389 113.972 252.207 113.663 251.922 113.405C251.64 113.146 251.262 113.017 250.788 113.017C250.374 113.017 250.011 113.126 249.7 113.345C249.391 113.561 249.151 113.869 248.979 114.27C248.806 114.668 248.72 115.138 248.72 115.682C248.72 116.239 248.805 116.719 248.974 117.124C249.143 117.528 249.381 117.841 249.69 118.063C250.001 118.285 250.367 118.396 250.788 118.396C251.07 118.396 251.325 118.345 251.554 118.242C251.786 118.136 251.98 117.985 252.136 117.79C252.295 117.594 252.406 117.359 252.469 117.084H253.915C253.862 117.578 253.702 118.018 253.433 118.406C253.165 118.794 252.805 119.099 252.354 119.321C251.907 119.543 251.382 119.654 250.778 119.654Z" fill="#2E2E2E"/>
<path d="M334.92 121.507C335.247 121.833 335.773 121.833 336.1 121.507L341.64 115.967C341.9 115.707 341.9 115.287 341.64 115.027L336.1 109.487C335.773 109.16 335.247 109.16 334.92 109.487C334.593 109.813 334.593 110.34 334.92 110.667L339.747 115.5L334.913 120.333C334.593 120.653 334.593 121.187 334.92 121.507Z" fill="black"/>
</svg>
