<svg width="51" height="50" viewBox="0 0 51 50" fill="none" xmlns="http://www.w3.org/2000/svg">
<g clip-path="url(#clip0_958_925)">
<path d="M30.6352 40.1339C33.0952 38.9439 37.9252 35.3639 37.9252 32.2239C37.9252 30.1839 35.3952 28.1739 32.8652 25.7139H18.1352C15.6152 28.1739 13.0752 30.1839 13.0752 32.2239C13.0752 35.3539 18.0752 38.9439 20.5352 40.1339" fill="#6D23F9"/>
<path d="M29.5551 10.254C29.5551 10.254 29.5351 10.344 29.3651 10.454C29.1851 10.564 28.9051 10.674 28.5051 10.754C27.7051 10.914 26.6051 10.924 25.3851 10.704C24.1651 10.494 23.1251 10.114 22.4351 9.70401C22.0851 9.49401 21.8651 9.29401 21.7351 9.13401C21.6051 8.97401 21.6251 8.89401 21.6251 8.88401C21.6251 8.87401 21.6451 8.79401 21.8151 8.68401C21.9951 8.57401 22.2751 8.46401 22.6751 8.38401C23.4751 8.22401 24.5751 8.21401 25.7951 8.43401C27.0151 8.64401 28.0551 9.02401 28.7451 9.43401C29.0951 9.64401 29.3151 9.84401 29.4451 10.004C29.5751 10.164 29.5551 10.244 29.5551 10.254Z" stroke="black" stroke-width="1.5"/>
<path d="M30.5748 40.1719V41.7341H20.4248V40.1719" stroke="black" stroke-width="1.5" stroke-linecap="round" stroke-linejoin="round"/>
<path d="M29.5552 10.2938C28.1452 12.0738 27.5252 14.3538 27.9152 17.3938C28.5352 24.4938 37.9252 28.3138 37.9252 32.2338C37.9252 35.3638 33.0952 38.9538 30.6352 40.1438H20.5352C18.0752 38.9538 13.0752 35.3738 13.0752 32.2338C13.0752 28.3138 22.4552 24.4938 23.0852 17.3938C23.3652 13.4038 22.8852 11.7238 21.6152 8.88379" stroke="black" stroke-width="1.5"/>
<path d="M18.6377 25.4512H32.5127" stroke="black" stroke-width="1.5" stroke-linecap="round"/>
</g>
<defs>
<clipPath id="clip0_958_925">
<rect width="30" height="35" fill="white" transform="translate(10.5 7.5)"/>
</clipPath>
</defs>
</svg>
