<svg width="51" height="50" viewBox="0 0 51 50" fill="none" xmlns="http://www.w3.org/2000/svg">
<g clip-path="url(#clip0_958_947)">
<mask id="path-1-inside-1_958_947" fill="white">
<path fill-rule="evenodd" clip-rule="evenodd" d="M25.5442 7.5C23.3036 7.5 21.4873 9.31633 21.4873 11.5569V32.0392C20.2672 33.1375 19.5 34.7291 19.5 36.5C19.5 39.8137 22.1863 42.5 25.5 42.5C28.8137 42.5 31.5 39.8137 31.5 36.5C31.5 34.7723 30.7697 33.2151 29.6011 32.1203V11.5569C29.6011 9.31633 27.7847 7.5 25.5442 7.5Z"/>
</mask>
<path d="M21.4873 32.0392L22.4908 33.1541L22.9873 32.7072V32.0392H21.4873ZM29.6011 32.1203H28.1011V32.7705L28.5756 33.215L29.6011 32.1203ZM22.9873 11.5569C22.9873 10.1448 24.1321 9 25.5442 9V6C22.4752 6 19.9873 8.4879 19.9873 11.5569H22.9873ZM22.9873 32.0392V11.5569H19.9873V32.0392H22.9873ZM21 36.5C21 35.172 21.5734 33.9799 22.4908 33.1541L20.4838 30.9243C18.961 32.295 18 34.2863 18 36.5H21ZM25.5 41C23.0147 41 21 38.9853 21 36.5H18C18 40.6421 21.3579 44 25.5 44V41ZM30 36.5C30 38.9853 27.9853 41 25.5 41V44C29.6421 44 33 40.6421 33 36.5H30ZM28.5756 33.215C29.4542 34.0381 30 35.2041 30 36.5H33C33 34.3404 32.0853 32.3921 30.6265 31.0256L28.5756 33.215ZM28.1011 11.5569V32.1203H31.1011V11.5569H28.1011ZM25.5442 9C26.9563 9 28.1011 10.1448 28.1011 11.5569H31.1011C31.1011 8.4879 28.6132 6 25.5442 6V9Z" fill="black" mask="url(#path-1-inside-1_958_947)"/>
<circle cx="25.5" cy="36.5" r="3" fill="#2E2E2E"/>
<rect x="24.5" y="10.8438" width="2" height="23.6562" rx="1" fill="#2E2E2E"/>
</g>
<defs>
<clipPath id="clip0_958_947">
<rect width="30" height="35" fill="white" transform="translate(10.5 7.5)"/>
</clipPath>
</defs>
</svg>
