<svg width="31" height="36" viewBox="0 0 31 36" fill="none" xmlns="http://www.w3.org/2000/svg">
<g clip-path="url(#clip0_958_896)">
<path d="M20.4774 4.11328L25.3647 8.74389L23.6451 10.4589C23.2221 10.846 22.8905 11.3137 22.6721 11.831C22.4537 12.3483 22.3535 12.9036 22.378 13.4603C22.378 15.5183 21.9254 18.7769 19.2103 20.9207C16.7604 22.6681 13.8465 23.7368 10.7934 24.0077C9.8208 24.1779 8.91437 24.5926 8.16878 25.2083L6.26815 27.0948" fill="#CB6868"/>
<path d="M6.26815 27.0948L1.10938 22.207L4.36757 19.2056C5.06595 18.5251 5.99539 18.1 6.99218 18.0051C8.71176 17.8336 11.4269 17.3191 13.1465 15.8613C14.8661 14.4035 15.5901 11.2307 15.9522 9.4299C16.1317 8.55905 16.5715 7.75541 17.2192 7.1146L20.4774 4.11328" fill="#CB6868"/>
<path d="M20.4774 4.11328L25.3647 8.74389L23.645 10.4589C23.2221 10.846 22.8905 11.3137 22.6721 11.831C22.4537 12.3483 22.3535 12.9036 22.378 13.4603C22.378 15.5183 21.9254 18.7769 19.2103 20.9207C16.7604 22.6681 13.8465 23.7368 10.7934 24.0077C9.8208 24.1779 8.91437 24.5926 8.16878 25.2083L6.26815 27.0948L1.10938 22.207L4.36757 19.2056C5.06595 18.5251 5.99539 18.1 6.99218 18.0051C8.71176 17.8336 11.4269 17.3191 13.1465 15.8613C14.8661 14.4035 15.5901 11.2307 15.9522 9.4299C16.1317 8.55905 16.5715 7.75541 17.2192 7.1146L20.4774 4.11328Z" stroke="black" stroke-width="1.5" stroke-linecap="round" stroke-linejoin="round"/>
<path d="M5.18164 23.4073C6.99173 21.6922 6.99173 21.2635 9.79741 20.5774C11.517 20.4059 14.2321 19.8914 15.9517 18.3479C17.6713 16.8044 18.3953 13.803 18.7573 12.0022C19.309 9.25819 20.9422 8.72457 21.7351 7.95068" stroke="#E6B7A8" stroke-width="2" stroke-linecap="square" stroke-linejoin="round"/>
<path d="M25.0028 11.8311L29.8901 16.4617L28.1704 18.1767C27.7475 18.5638 27.4159 19.0314 27.1975 19.5487C26.9791 20.0661 26.8789 20.6213 26.9034 21.178C26.9034 23.2361 26.4508 26.4946 23.7357 28.6384C21.2858 30.3859 18.3719 31.4546 15.3188 31.7255C14.3462 31.8957 13.4398 32.3103 12.6942 32.9261L10.7935 34.8126" fill="#CB6868"/>
<path d="M10.7935 34.8126L5.63477 29.9247L8.89297 26.9234C9.59134 26.2429 10.5208 25.8177 11.5176 25.7229C13.2372 25.5514 15.9523 25.0369 17.6719 23.5791C19.3915 22.1213 20.1155 18.9485 20.4775 17.1477C20.6571 16.2768 21.0969 15.4732 21.7446 14.8324L25.0028 11.8311" fill="#CB6868"/>
<path d="M25.0028 11.8311L29.8901 16.4617L28.1704 18.1767C27.7475 18.5638 27.4159 19.0314 27.1975 19.5487C26.9791 20.0661 26.8789 20.6213 26.9034 21.178C26.9034 23.2361 26.4508 26.4946 23.7357 28.6384C21.2858 30.3859 18.3719 31.4546 15.3188 31.7255C14.3462 31.8957 13.4398 32.3103 12.6942 32.926L10.7935 34.8126L5.63477 29.9247L8.89297 26.9234C9.59134 26.2429 10.5208 25.8177 11.5176 25.7229C13.2372 25.5514 15.9523 25.0369 17.6719 23.5791C19.3915 22.1213 20.1155 18.9485 20.4775 17.1477C20.6571 16.2768 21.0969 15.4732 21.7446 14.8324L25.0028 11.8311Z" stroke="black" stroke-width="1.5" stroke-linecap="round" stroke-linejoin="round"/>
<path d="M9.70801 31.1252C11.5181 29.4101 11.5181 28.9814 14.3238 28.2954C16.0434 28.1238 18.7585 27.6093 20.4781 26.0658C22.1977 24.5223 22.9217 21.5209 23.2837 19.7201C23.8353 16.9761 25.2601 16.3994 26.053 15.6255" stroke="#E6B7A8" stroke-width="2" stroke-linecap="square" stroke-linejoin="round"/>
</g>
<defs>
<clipPath id="clip0_958_896">
<rect width="30" height="35" fill="white" transform="translate(0.5 0.5)"/>
</clipPath>
</defs>
</svg>
