<svg width="31" height="36" viewBox="0 0 31 36" fill="none" xmlns="http://www.w3.org/2000/svg">
<g clip-path="url(#clip0_958_887)">
<path d="M1.5 34.7656V21.8936H29.5V25.7075C28.1901 25.7075 26.0614 26.2796 26.0614 28.568C26.0614 30.8563 28.1901 31.4284 29.5 31.4284V34.7656H1.5Z" fill="#E9E596" stroke="black" stroke-width="1.5" stroke-linecap="round" stroke-linejoin="round"/>
<path d="M29.5 21.8589L14.9597 15.2798C13.0081 14.3172 10.7767 14.0287 8.63351 14.462C6.49032 14.8954 4.56331 16.0246 3.17019 17.6636C2.13012 18.8324 1.53985 20.315 1.5 21.8589" fill="#E9E596"/>
<path d="M29.5 21.8589L14.9597 15.2798C13.0081 14.3172 10.7767 14.0287 8.63351 14.462C6.49032 14.8954 4.56331 16.0246 3.17019 17.6636C2.13012 18.8324 1.53985 20.315 1.5 21.8589H29.5Z" stroke="black" stroke-width="1.5" stroke-linecap="round" stroke-linejoin="round"/>
<path d="M7.59114 31.8098C9.32744 31.8098 10.735 30.4438 10.735 28.7587C10.735 27.0736 9.32744 25.7075 7.59114 25.7075C5.85483 25.7075 4.44727 27.0736 4.44727 28.7587C4.44727 30.4438 5.85483 31.8098 7.59114 31.8098Z" fill="#E9E9E9" stroke="black" stroke-width="1.5" stroke-linecap="round" stroke-linejoin="round"/>
<path d="M20.2643 28.7586C21.4038 28.7586 22.3275 27.8621 22.3275 26.7562C22.3275 25.6504 21.4038 24.7539 20.2643 24.7539C19.1249 24.7539 18.2012 25.6504 18.2012 26.7562C18.2012 27.8621 19.1249 28.7586 20.2643 28.7586Z" fill="#E9E9E9" stroke="black" stroke-width="1.5" stroke-miterlimit="10"/>
</g>
<defs>
<clipPath id="clip0_958_887">
<rect width="30" height="35" fill="white" transform="translate(0.5 0.5)"/>
</clipPath>
</defs>
</svg>
