<svg width="31" height="36" viewBox="0 0 31 36" fill="none" xmlns="http://www.w3.org/2000/svg">
<g clip-path="url(#clip0_958_879)">
<path d="M26.6732 25.5601L26.6722 25.5603C22.4547 26.6555 20.037 28.0669 18.0268 29.5449C17.4532 29.9666 16.9266 30.3814 16.4101 30.7883C15.1039 31.8173 13.8614 32.7961 12.0815 33.7111C10.0179 34.77 8.35951 34.9322 7.0446 34.586C5.72608 34.2389 4.63688 33.3499 3.77452 32.0831C2.04534 29.5428 1.3526 25.6527 1.62334 22.5077C3.30726 17.5156 8.43198 14.0411 13.9097 12.5962C16.646 11.8744 19.4105 11.678 21.7799 12.0342C24.159 12.3918 26.0601 13.292 27.1909 14.6838L27.1909 14.6839C29.16 17.1065 29.899 19.6626 29.7038 21.6763C29.5104 23.6718 28.4208 25.109 26.6732 25.5601Z" fill="#CEA8A8" stroke="black" stroke-width="1.5" stroke-miterlimit="10"/>
<path d="M1.60171 20.9459L1.60181 20.9456C3.72389 15.3111 8.28534 12.0868 13.1532 10.8441C18.052 9.59348 23.1472 10.3777 26.2564 12.6204C28.3041 14.1011 29.1326 16.2579 29.0019 18.1362C28.8706 20.0217 27.7955 21.5572 26.0632 22.0044L26.0622 22.0047C21.8446 23.0998 19.4269 24.5112 17.4167 25.9892C16.843 26.4109 16.3165 26.8257 15.7999 27.2326C14.4937 28.2616 13.2512 29.2404 11.4712 30.1554C9.4136 31.2112 7.71759 31.3746 6.36124 31.0431C5.00016 30.7105 3.88628 29.8565 3.04041 28.7051C2.19176 27.5499 1.6317 26.1179 1.38834 24.7011C1.14376 23.2772 1.22953 21.9329 1.60171 20.9459Z" fill="white" stroke="black" stroke-width="1.5" stroke-miterlimit="10"/>
<path d="M4.52798 20.1949L4.52793 20.195C4.25561 20.9122 4.17231 21.9051 4.32751 22.967C4.48181 24.0228 4.86312 25.0844 5.45295 25.9354C6.03977 26.782 6.81371 27.3963 7.76406 27.6366C8.71122 27.8761 9.93572 27.7701 11.4751 26.9844L4.52798 20.1949ZM4.52798 20.1949C6.1234 15.9909 9.47079 13.5993 13.0478 12.6833C16.6552 11.7596 20.4007 12.3601 22.7196 14.025L22.7205 14.0256M4.52798 20.1949L22.7205 14.0256M22.7205 14.0256C24.233 15.1081 24.8352 16.6776 24.7404 18.0332C24.6451 19.3953 23.8679 20.4804 22.6362 20.7971M22.7205 14.0256L22.6362 20.7971M22.6362 20.7971C19.395 21.63 17.5306 22.7096 15.9816 23.8418M22.6362 20.7971L15.9816 23.8418M15.9816 23.8418C15.5339 24.169 15.1269 24.4879 14.73 24.7989M15.9816 23.8418L14.73 24.7989M14.73 24.7989C13.7407 25.5741 12.8139 26.3003 11.4754 26.9842L14.73 24.7989Z" fill="#CEA8A8" stroke="black" stroke-width="1.5" stroke-miterlimit="10"/>
<path d="M9.8442 19.257L9.8442 19.257L9.84962 19.2568C11.4045 19.1992 12.2053 19.5136 12.5246 19.8813C12.7805 20.176 12.9311 20.7787 12.3379 22.0052C12.1196 22.4563 11.8302 22.6371 11.5141 22.7097C11.1561 22.792 10.7035 22.7451 10.2059 22.5982C9.71825 22.4542 9.2527 22.2336 8.90174 22.0426C8.72829 21.9482 8.58746 21.8637 8.49137 21.8036C8.46441 21.7868 8.44105 21.7719 8.42158 21.7593C8.18206 21.4608 8.16808 20.9625 8.54694 20.3244C8.73334 20.0105 8.98426 19.7306 9.24322 19.5337C9.51317 19.3284 9.72754 19.2605 9.8442 19.257Z" fill="white" stroke="black" stroke-width="1.5" stroke-miterlimit="10"/>
</g>
<defs>
<clipPath id="clip0_958_879">
<rect width="30" height="35" fill="white" transform="translate(0.5 0.5)"/>
</clipPath>
</defs>
</svg>
