<svg width="322" height="128" viewBox="0 0 322 128" fill="none" xmlns="http://www.w3.org/2000/svg">
<path d="M271 6L271 123" stroke="#CAC4CF" stroke-width="1.5" stroke-linecap="round"/>
<path d="M1 111.5L26.8911 105.119L59.4577 100.382L79.2911 78.4613L124.701 89.9602L145.056 45L186.633 69.8056L210.372 46.5L233.747 31.5L271 17" stroke="#CFBDFF" stroke-width="2" stroke-linecap="round"/>
<path d="M277.979 22H276.348L280.012 11.8182H281.787L285.451 22H283.82L280.942 13.6676H280.862L277.979 22ZM278.252 18.0128H283.542V19.3054H278.252V18.0128ZM292.378 14.3636L289.608 22H288.018L285.243 14.3636H286.839L288.773 20.2401H288.853L290.782 14.3636H292.378ZM296.717 25.0227C296.11 25.0227 295.588 24.9432 295.151 24.7841C294.716 24.625 294.362 24.4145 294.087 24.1527C293.812 23.8909 293.606 23.6042 293.47 23.2926L294.748 22.7656C294.837 22.9115 294.957 23.0656 295.106 23.228C295.258 23.3937 295.464 23.5346 295.722 23.6506C295.984 23.7666 296.321 23.8246 296.732 23.8246C297.295 23.8246 297.761 23.687 298.129 23.4119C298.496 23.1402 298.68 22.706 298.68 22.1094V20.608H298.586C298.496 20.7704 298.367 20.951 298.198 21.1499C298.032 21.3487 297.804 21.5211 297.512 21.6669C297.22 21.8127 296.841 21.8857 296.374 21.8857C295.77 21.8857 295.227 21.7448 294.743 21.4631C294.262 21.178 293.881 20.7588 293.599 20.2053C293.321 19.6484 293.182 18.964 293.182 18.152C293.182 17.34 293.319 16.6439 293.594 16.0639C293.873 15.4839 294.254 15.0398 294.738 14.7315C295.222 14.42 295.77 14.2642 296.384 14.2642C296.857 14.2642 297.24 14.3438 297.532 14.5028C297.824 14.6586 298.051 14.8409 298.213 15.0497C298.379 15.2585 298.506 15.4425 298.596 15.6016H298.705V14.3636H300.162V22.169C300.162 22.8253 300.009 23.3639 299.705 23.7848C299.4 24.2057 298.987 24.5173 298.467 24.7195C297.95 24.9216 297.366 25.0227 296.717 25.0227ZM296.702 20.6527C297.129 20.6527 297.491 20.5533 297.786 20.3544C298.084 20.1522 298.309 19.8639 298.462 19.4893C298.617 19.1115 298.695 18.6591 298.695 18.1321C298.695 17.6184 298.619 17.166 298.467 16.7749C298.314 16.3838 298.09 16.0788 297.795 15.8601C297.5 15.638 297.136 15.527 296.702 15.527C296.254 15.527 295.881 15.643 295.583 15.875C295.285 16.1037 295.059 16.4152 294.907 16.8097C294.758 17.2041 294.683 17.6449 294.683 18.1321C294.683 18.6326 294.759 19.0717 294.912 19.4496C295.064 19.8274 295.29 20.1224 295.588 20.3345C295.89 20.5466 296.261 20.6527 296.702 20.6527Z" fill="#CFBDFF"/>
<circle cx="271" cy="17" r="3" fill="#CFBDFF"/>
<path d="M279.524 45.1392C278.841 45.1392 278.232 45.0215 277.695 44.7862C277.161 44.5509 276.738 44.2244 276.427 43.8068C276.119 43.3859 275.953 42.8987 275.93 42.3452H277.491C277.511 42.6468 277.612 42.9086 277.794 43.1307C277.98 43.3494 278.222 43.5185 278.52 43.6378C278.818 43.7571 279.15 43.8168 279.514 43.8168C279.915 43.8168 280.27 43.7472 280.578 43.608C280.89 43.4687 281.133 43.2749 281.309 43.0263C281.485 42.7744 281.572 42.4844 281.572 42.1562C281.572 41.8149 281.485 41.5149 281.309 41.2564C281.137 40.9946 280.883 40.7891 280.548 40.6399C280.217 40.4908 279.816 40.4162 279.345 40.4162H278.485V39.1634H279.345C279.723 39.1634 280.054 39.0954 280.339 38.9595C280.628 38.8236 280.853 38.6347 281.016 38.3928C281.178 38.1475 281.259 37.8608 281.259 37.5327C281.259 37.2178 281.188 36.9444 281.045 36.7124C280.906 36.477 280.707 36.2931 280.449 36.1605C280.194 36.0279 279.892 35.9616 279.544 35.9616C279.213 35.9616 278.903 36.023 278.614 36.1456C278.329 36.2649 278.097 36.4373 277.918 36.6626C277.739 36.8847 277.643 37.1515 277.63 37.4631H276.143C276.16 36.9129 276.322 36.429 276.631 36.0114C276.942 35.5937 277.353 35.2673 277.864 35.032C278.374 34.7966 278.941 34.679 279.564 34.679C280.217 34.679 280.78 34.8066 281.254 35.0618C281.732 35.3137 282.099 35.6501 282.358 36.071C282.62 36.492 282.749 36.9527 282.746 37.4531C282.749 38.0232 282.59 38.5071 282.268 38.9048C281.95 39.3026 281.526 39.5694 280.996 39.7053V39.7848C281.672 39.8875 282.196 40.156 282.567 40.5902C282.941 41.0244 283.127 41.563 283.124 42.206C283.127 42.7661 282.971 43.2682 282.656 43.7124C282.345 44.1565 281.919 44.5062 281.379 44.7614C280.838 45.0133 280.22 45.1392 279.524 45.1392ZM285.003 45V43.8864L288.448 40.3168C288.816 39.929 289.119 39.5893 289.358 39.2976C289.6 39.0026 289.781 38.7225 289.9 38.4574C290.019 38.1922 290.079 37.9105 290.079 37.6122C290.079 37.2741 289.999 36.9825 289.84 36.7372C289.681 36.4886 289.464 36.2981 289.189 36.1655C288.914 36.0296 288.604 35.9616 288.259 35.9616C287.895 35.9616 287.576 36.0362 287.305 36.1854C287.033 36.3345 286.824 36.545 286.678 36.8168C286.532 37.0885 286.46 37.4067 286.46 37.7713H284.993C284.993 37.1515 285.135 36.6096 285.42 36.1456C285.705 35.6816 286.097 35.322 286.594 35.0668C287.091 34.8082 287.656 34.679 288.289 34.679C288.929 34.679 289.492 34.8066 289.979 35.0618C290.47 35.3137 290.853 35.6584 291.128 36.0959C291.403 36.5301 291.54 37.0206 291.54 37.5675C291.54 37.9453 291.469 38.3149 291.327 38.6761C291.188 39.0374 290.944 39.4401 290.596 39.8842C290.248 40.325 289.764 40.8603 289.144 41.4901L287.121 43.608V43.6825H291.705V45H285.003ZM296.974 34.679C297.429 34.6823 297.876 34.7652 298.317 34.9276C298.758 35.09 299.155 35.3551 299.51 35.723C299.868 36.0909 300.153 36.5881 300.365 37.2145C300.58 37.8376 300.69 38.6132 300.693 39.5412C300.693 40.4328 300.604 41.2266 300.425 41.9226C300.246 42.6153 299.989 43.2003 299.654 43.6776C299.323 44.1548 298.92 44.5178 298.446 44.7663C297.972 45.0149 297.438 45.1392 296.845 45.1392C296.239 45.1392 295.7 45.0199 295.229 44.7812C294.759 44.5426 294.376 44.2128 294.081 43.7919C293.786 43.3677 293.602 42.8804 293.529 42.3303H295.045C295.145 42.7678 295.347 43.1224 295.652 43.3942C295.96 43.6626 296.358 43.7969 296.845 43.7969C297.591 43.7969 298.173 43.4721 298.59 42.8224C299.008 42.1695 299.218 41.258 299.222 40.0881H299.142C298.97 40.3731 298.754 40.6184 298.496 40.8239C298.241 41.0294 297.954 41.1884 297.636 41.3011C297.317 41.4138 296.978 41.4702 296.616 41.4702C296.03 41.4702 295.496 41.326 295.016 41.0376C294.535 40.7493 294.152 40.3532 293.867 39.8494C293.582 39.3456 293.44 38.7706 293.44 38.1243C293.44 37.4813 293.585 36.898 293.877 36.3743C294.172 35.8506 294.583 35.4363 295.11 35.1314C295.64 34.8232 296.262 34.6723 296.974 34.679ZM296.979 35.9716C296.592 35.9716 296.242 36.0677 295.93 36.2599C295.622 36.4489 295.379 36.7057 295.2 37.0305C295.021 37.352 294.931 37.71 294.931 38.1044C294.931 38.4988 295.017 38.8568 295.19 39.1783C295.365 39.4964 295.604 39.75 295.906 39.9389C296.21 40.1245 296.558 40.2173 296.95 40.2173C297.241 40.2173 297.513 40.161 297.765 40.0483C298.017 39.9356 298.237 39.7798 298.426 39.581C298.615 39.3788 298.763 39.1501 298.869 38.8949C298.975 38.6397 299.028 38.3712 299.028 38.0895C299.028 37.715 298.938 37.367 298.759 37.0455C298.584 36.724 298.342 36.4654 298.033 36.2699C297.725 36.071 297.374 35.9716 296.979 35.9716ZM303.119 45.0945C302.848 45.0945 302.614 44.9983 302.418 44.8061C302.223 44.6106 302.125 44.3752 302.125 44.1001C302.125 43.8284 302.223 43.5964 302.418 43.4041C302.614 43.2086 302.848 43.1108 303.119 43.1108C303.391 43.1108 303.625 43.2086 303.82 43.4041C304.016 43.5964 304.114 43.8284 304.114 44.1001C304.114 44.2824 304.067 44.4498 303.974 44.6023C303.885 44.7514 303.766 44.8707 303.616 44.9602C303.467 45.0497 303.302 45.0945 303.119 45.0945ZM309.347 34.679C309.802 34.6823 310.249 34.7652 310.69 34.9276C311.131 35.09 311.528 35.3551 311.883 35.723C312.241 36.0909 312.526 36.5881 312.738 37.2145C312.954 37.8376 313.063 38.6132 313.066 39.5412C313.066 40.4328 312.977 41.2266 312.798 41.9226C312.619 42.6153 312.362 43.2003 312.027 43.6776C311.696 44.1548 311.293 44.5178 310.819 44.7663C310.345 45.0149 309.811 45.1392 309.218 45.1392C308.612 45.1392 308.073 45.0199 307.602 44.7812C307.132 44.5426 306.749 44.2128 306.454 43.7919C306.159 43.3677 305.975 42.8804 305.902 42.3303H307.419C307.518 42.7678 307.72 43.1224 308.025 43.3942C308.333 43.6626 308.731 43.7969 309.218 43.7969C309.964 43.7969 310.546 43.4721 310.963 42.8224C311.381 42.1695 311.591 41.258 311.595 40.0881H311.515C311.343 40.3731 311.127 40.6184 310.869 40.8239C310.614 41.0294 310.327 41.1884 310.009 41.3011C309.691 41.4138 309.351 41.4702 308.99 41.4702C308.403 41.4702 307.869 41.326 307.389 41.0376C306.908 40.7493 306.525 40.3532 306.24 39.8494C305.955 39.3456 305.813 38.7706 305.813 38.1243C305.813 37.4813 305.959 36.898 306.25 36.3743C306.545 35.8506 306.956 35.4363 307.483 35.1314C308.013 34.8232 308.635 34.6723 309.347 34.679ZM309.352 35.9716C308.965 35.9716 308.615 36.0677 308.303 36.2599C307.995 36.4489 307.752 36.7057 307.573 37.0305C307.394 37.352 307.304 37.71 307.304 38.1044C307.304 38.4988 307.39 38.8568 307.563 39.1783C307.738 39.4964 307.977 39.75 308.279 39.9389C308.584 40.1245 308.932 40.2173 309.323 40.2173C309.614 40.2173 309.886 40.161 310.138 40.0483C310.39 39.9356 310.61 39.7798 310.799 39.581C310.988 39.3788 311.136 39.1501 311.242 38.8949C311.348 38.6397 311.401 38.3712 311.401 38.0895C311.401 37.715 311.311 37.367 311.132 37.0455C310.957 36.724 310.715 36.4654 310.406 36.2699C310.098 36.071 309.747 35.9716 309.352 35.9716ZM318.248 34.679C318.702 34.6823 319.149 34.7652 319.59 34.9276C320.031 35.09 320.429 35.3551 320.783 35.723C321.141 36.0909 321.426 36.5881 321.638 37.2145C321.854 37.8376 321.963 38.6132 321.967 39.5412C321.967 40.4328 321.877 41.2266 321.698 41.9226C321.519 42.6153 321.262 43.2003 320.928 43.6776C320.596 44.1548 320.193 44.5178 319.719 44.7663C319.246 45.0149 318.712 45.1392 318.119 45.1392C317.512 45.1392 316.973 45.0199 316.503 44.7812C316.032 44.5426 315.649 44.2128 315.354 43.7919C315.059 43.3677 314.875 42.8804 314.803 42.3303H316.319C316.418 42.7678 316.621 43.1224 316.925 43.3942C317.234 43.6626 317.631 43.7969 318.119 43.7969C318.864 43.7969 319.446 43.4721 319.864 42.8224C320.281 42.1695 320.492 41.258 320.495 40.0881H320.415C320.243 40.3731 320.028 40.6184 319.769 40.8239C319.514 41.0294 319.227 41.1884 318.909 41.3011C318.591 41.4138 318.251 41.4702 317.89 41.4702C317.303 41.4702 316.77 41.326 316.289 41.0376C315.808 40.7493 315.426 40.3532 315.141 39.8494C314.856 39.3456 314.713 38.7706 314.713 38.1243C314.713 37.4813 314.859 36.898 315.151 36.3743C315.446 35.8506 315.857 35.4363 316.384 35.1314C316.914 34.8232 317.535 34.6723 318.248 34.679ZM318.253 35.9716C317.865 35.9716 317.515 36.0677 317.204 36.2599C316.896 36.4489 316.652 36.7057 316.473 37.0305C316.294 37.352 316.205 37.71 316.205 38.1044C316.205 38.4988 316.291 38.8568 316.463 39.1783C316.639 39.4964 316.877 39.75 317.179 39.9389C317.484 40.1245 317.832 40.2173 318.223 40.2173C318.515 40.2173 318.786 40.161 319.038 40.0483C319.29 39.9356 319.511 39.7798 319.7 39.581C319.888 39.3788 320.036 39.1501 320.142 38.8949C320.248 38.6397 320.301 38.3712 320.301 38.0895C320.301 37.715 320.212 37.367 320.033 37.0455C319.857 36.724 319.615 36.4654 319.307 36.2699C318.999 36.071 318.647 35.9716 318.253 35.9716Z" fill="#5D45DB"/>
<path d="M1 108L30.9932 101.714L62.1811 93.6894L157.915 48.3176L193.216 43.1663L224.975 29L272 39.6192" stroke="#6D23F9" stroke-width="2" stroke-linecap="round"/>
<circle cx="271" cy="40" r="3" fill="#6D23F9"/>
</svg>
