<svg width="24" height="24" viewBox="0 0 24 24" fill="none" xmlns="http://www.w3.org/2000/svg">
<path d="M11.25 12.75H3.75C3.5375 12.75 3.35938 12.678 3.21563 12.5341C3.07188 12.3902 3 12.2118 3 11.999C3 11.7862 3.07188 11.6082 3.21563 11.4649C3.35938 11.3216 3.5375 11.25 3.75 11.25H11.25V3.75C11.25 3.5375 11.322 3.35938 11.4659 3.21563C11.6098 3.07188 11.7882 3 12.001 3C12.2138 3 12.3918 3.07188 12.5351 3.21563C12.6784 3.35938 12.75 3.5375 12.75 3.75V11.25H20.25C20.4625 11.25 20.6406 11.322 20.7844 11.4659C20.9281 11.6098 21 11.7882 21 12.001C21 12.2138 20.9281 12.3918 20.7844 12.5351C20.6406 12.6784 20.4625 12.75 20.25 12.75H12.75V20.25C12.75 20.4625 12.678 20.6406 12.5341 20.7844C12.3902 20.9281 12.2118 21 11.999 21C11.7862 21 11.6082 20.9281 11.4649 20.7844C11.3216 20.6406 11.25 20.4625 11.25 20.25V12.75Z" fill="#CAC4CF"/>
</svg>
