<svg width="24" height="24" viewBox="0 0 24 24" fill="none" xmlns="http://www.w3.org/2000/svg">
<path d="M20.3639 13.0237L4.44333 19.5166C4.0997 19.6496 3.77324 19.6209 3.46395 19.4307C3.15465 19.2404 3 18.9642 3 18.6021V5.59521C3 5.23307 3.15465 4.95687 3.46395 4.76661C3.77324 4.57636 4.0997 4.54772 4.44333 4.68069L20.3639 11.1735C20.788 11.3546 21 11.663 21 12.0986C21 12.5343 20.788 12.8427 20.3639 13.0237ZM4.71093 17.6155L18.2275 12.0986L4.71093 6.58181V10.6558L8.80908 11.6117C9.32431 11.7319 9.32432 12.4654 8.80909 12.5856L4.71093 13.5415V17.6155Z" fill="#CAC4CF"/>
</svg>
