<svg width="308" height="3" viewBox="0 0 308 3" fill="none" xmlns="http://www.w3.org/2000/svg">
<g clip-path="url(#clip0_958_991)">
<circle cx="1.5" cy="1.5" r="1.5" fill="#CAC4CF"/>
<circle cx="11.5" cy="1.5" r="1.5" fill="#CAC4CF"/>
<circle cx="21.5" cy="1.5" r="1.5" fill="#CAC4CF"/>
<circle cx="31.5" cy="1.5" r="1.5" fill="#CAC4CF"/>
<circle cx="41.5" cy="1.5" r="1.5" fill="#CAC4CF"/>
<circle cx="51.5" cy="1.5" r="1.5" fill="#CAC4CF"/>
<circle cx="61.5" cy="1.5" r="1.5" fill="#CAC4CF"/>
<circle cx="71.5" cy="1.5" r="1.5" fill="#CAC4CF"/>
<circle cx="81.5" cy="1.5" r="1.5" fill="#CAC4CF"/>
<circle cx="91.5" cy="1.5" r="1.5" fill="#CAC4CF"/>
<circle cx="101.5" cy="1.5" r="1.5" fill="#CAC4CF"/>
<circle cx="111.5" cy="1.5" r="1.5" fill="#CAC4CF"/>
<circle cx="121.5" cy="1.5" r="1.5" fill="#CAC4CF"/>
<circle cx="131.5" cy="1.5" r="1.5" fill="#CAC4CF"/>
<circle cx="141.5" cy="1.5" r="1.5" fill="#CAC4CF"/>
<circle cx="151.5" cy="1.5" r="1.5" fill="#CAC4CF"/>
<circle cx="161.5" cy="1.5" r="1.5" fill="#CAC4CF"/>
<circle cx="171.5" cy="1.5" r="1.5" fill="#CAC4CF"/>
<circle cx="181.5" cy="1.5" r="1.5" fill="#CAC4CF"/>
<circle cx="191.5" cy="1.5" r="1.5" fill="#CAC4CF"/>
<circle cx="201.5" cy="1.5" r="1.5" fill="#CAC4CF"/>
<circle cx="211.5" cy="1.5" r="1.5" fill="#CAC4CF"/>
<circle cx="221.5" cy="1.5" r="1.5" fill="#CAC4CF"/>
<circle cx="231.5" cy="1.5" r="1.5" fill="#CAC4CF"/>
<circle cx="241.5" cy="1.5" r="1.5" fill="#CAC4CF"/>
<circle cx="251.5" cy="1.5" r="1.5" fill="#CAC4CF"/>
<circle cx="261.5" cy="1.5" r="1.5" fill="#CAC4CF"/>
<circle cx="271.5" cy="1.5" r="1.5" fill="#CAC4CF"/>
<circle cx="281.5" cy="1.5" r="1.5" fill="#CAC4CF"/>
<circle cx="291.5" cy="1.5" r="1.5" fill="#CAC4CF"/>
<circle cx="301.5" cy="1.5" r="1.5" fill="#CAC4CF"/>
</g>
<defs>
<clipPath id="clip0_958_991">
<rect width="308" height="3" fill="white"/>
</clipPath>
</defs>
</svg>
