<svg width="19" height="19" viewBox="0 0 19 19" fill="none" xmlns="http://www.w3.org/2000/svg">
<path d="M8.10225 1.4561C8.86454 0.661985 10.1355 0.661985 10.8977 1.4561C11.3719 1.9501 12.0722 2.15696 12.7386 1.99964C13.8045 1.74803 14.8702 2.44792 15.0844 3.52198C15.2187 4.19519 15.6978 4.7585 16.3439 4.9906C17.3784 5.36226 17.8988 6.52601 17.5025 7.55129C17.2542 8.1935 17.3568 8.92819 17.7751 9.47506C18.4457 10.3517 18.2682 11.6123 17.3777 12.2645C16.823 12.6708 16.5212 13.3475 16.5802 14.0326C16.6741 15.1247 15.849 16.0975 14.7547 16.1595C14.0704 16.1983 13.4543 16.5999 13.1376 17.2078C12.6308 18.1807 11.4116 18.5468 10.4594 18.0022C9.86497 17.6622 9.13503 17.6622 8.54063 18.0022C7.58839 18.5468 6.36919 18.1807 5.86237 17.2078C5.54571 16.5999 4.92959 16.1983 4.24529 16.1595C3.15098 16.0975 2.32586 15.1247 2.41985 14.0326C2.47881 13.3475 2.17705 12.6708 1.62228 12.2645C0.731844 11.6123 0.554282 10.3517 1.22485 9.47506C1.64317 8.92819 1.74578 8.1935 1.49752 7.55129C1.10118 6.52601 1.62163 5.36226 2.65611 4.99061C3.30216 4.7585 3.78129 4.19519 3.91559 3.52198C4.12984 2.44792 5.19547 1.74803 6.2614 1.99964C6.92785 2.15696 7.62805 1.9501 8.10225 1.4561Z" fill="#6D23F9"/>
<path d="M8.10225 1.4561C8.86454 0.661985 10.1355 0.661985 10.8977 1.4561C11.3719 1.9501 12.0722 2.15696 12.7386 1.99964C13.8045 1.74803 14.8702 2.44792 15.0844 3.52198C15.2187 4.19519 15.6978 4.7585 16.3439 4.9906C17.3784 5.36226 17.8988 6.52601 17.5025 7.55129C17.2542 8.1935 17.3568 8.92819 17.7751 9.47506C18.4457 10.3517 18.2682 11.6123 17.3777 12.2645C16.823 12.6708 16.5212 13.3475 16.5802 14.0326C16.6741 15.1247 15.849 16.0975 14.7547 16.1595C14.0704 16.1983 13.4543 16.5999 13.1376 17.2078C12.6308 18.1807 11.4116 18.5468 10.4594 18.0022C9.86497 17.6622 9.13503 17.6622 8.54063 18.0022C7.58839 18.5468 6.36919 18.1807 5.86237 17.2078C5.54571 16.5999 4.92959 16.1983 4.24529 16.1595C3.15098 16.0975 2.32586 15.1247 2.41985 14.0326C2.47881 13.3475 2.17705 12.6708 1.62228 12.2645C0.731844 11.6123 0.554282 10.3517 1.22485 9.47506C1.64317 8.92819 1.74578 8.1935 1.49752 7.55129C1.10118 6.52601 1.62163 5.36226 2.65611 4.99061C3.30216 4.7585 3.78129 4.19519 3.91559 3.52198C4.12984 2.44792 5.19547 1.74803 6.2614 1.99964C6.92785 2.15696 7.62805 1.9501 8.10225 1.4561Z" fill="#6D23F9"/>
<path opacity="0.8" d="M7.77842 12.6571L5.9145 10.7254C5.81415 10.6212 5.6779 10.5626 5.53581 10.5626C5.39372 10.5626 5.25747 10.6212 5.15712 10.7254C4.94763 10.9425 4.94763 11.2932 5.15712 11.5103L7.40242 13.8372C7.61191 14.0543 7.95031 14.0543 8.1598 13.8372L13.8429 7.94771C14.0524 7.73061 14.0524 7.37991 13.8429 7.16282C13.7425 7.05858 13.6063 7 13.4642 7C13.3221 7 13.1859 7.05858 13.0855 7.16282L7.77842 12.6571Z" fill="white" stroke="#F6F6F6" stroke-width="0.38438"/>
</svg>
