<svg width="375" height="50" viewBox="0 0 375 50" fill="none" xmlns="http://www.w3.org/2000/svg">
<path d="M0 0H428V50H0V0Z" fill="white"/>
<path d="M45.836 37.0995L40 22.3784H44.1835L46.7146 29.2342C46.8819 29.6689 47.0214 30.0439 47.1329 30.3593C47.2445 30.6748 47.3421 30.9692 47.4258 31.2426C47.5094 31.516 47.5931 31.8034 47.6768 32.1049C47.7604 32.4063 47.8441 32.7673 47.9278 33.1879H47.2375C47.363 32.6411 47.4815 32.1785 47.5931 31.7999C47.7047 31.4214 47.8267 31.0428 47.9592 30.6643C48.0916 30.2858 48.2625 29.8091 48.4716 29.2342L50.9608 22.3784H55.0398L49.1619 37.0995H45.836Z" fill="black"/>
<path d="M56.6924 37.0995V22.3784H67.3395V25.8063H60.6667V33.6716H67.6532V37.0995H56.6924ZM58.6586 31.2531V28.0145H66.5028V31.2531H58.6586Z" fill="black"/>
<path d="M70.4773 37.0995V22.3784H81.1244V25.8063H74.4516V33.6716H81.4381V37.0995H70.4773ZM72.4436 31.2531V28.0145H80.2877V31.2531H72.4436Z" fill="black"/>
<path d="M84.2615 37.0995V22.3784H87.9639L95.0759 32.1785L94.2183 31.9682C94.1485 31.4494 94.0893 30.9797 94.0405 30.5591C93.9917 30.1385 93.9498 29.739 93.915 29.3604C93.8801 28.9819 93.8522 28.6033 93.8313 28.2248C93.8104 27.8462 93.7999 27.4327 93.7999 26.984V22.3784H97.7952V37.0995H94.0509L86.3951 26.5844L87.8384 26.942C87.9081 27.5168 87.9674 28.0145 88.0162 28.4351C88.065 28.8557 88.1033 29.2342 88.1312 29.5707C88.1591 29.9072 88.1835 30.2297 88.2044 30.5381C88.2254 30.8465 88.2393 31.176 88.2463 31.5265C88.2533 31.877 88.2567 32.2766 88.2567 32.7252V37.0995H84.2615Z" fill="black"/>
<path d="M126.306 37.0995L120.47 22.3784H124.653L127.184 29.2342C127.352 29.6689 127.491 30.0439 127.603 30.3593C127.714 30.6748 127.812 30.9692 127.895 31.2426C127.979 31.516 128.063 31.8034 128.146 32.1049C128.23 32.4063 128.314 32.7673 128.398 33.1879H127.707C127.833 32.6411 127.951 32.1785 128.063 31.7999C128.174 31.4214 128.296 31.0428 128.429 30.6643C128.561 30.2858 128.732 29.8091 128.941 29.2342L131.431 22.3784H135.51L129.632 37.0995H126.306Z" fill="black"/>
<path d="M137.162 37.0995V22.3784H147.809V25.8063H141.136V33.6716H148.123V37.0995H137.162ZM139.128 31.2531V28.0145H146.972V31.2531H139.128Z" fill="black"/>
<path d="M150.919 37.0985V22.3774H157.675C158.665 22.3774 159.551 22.5807 160.332 22.9873C161.113 23.3939 161.723 23.9477 162.162 24.6487C162.601 25.3497 162.821 26.1559 162.821 27.0672C162.821 28.0486 162.601 28.9178 162.162 29.6749C161.723 30.432 161.113 31.0243 160.332 31.4519C159.551 31.8796 158.665 32.0934 157.675 32.0934H154.809V37.0985H150.919ZM154.809 29.1071H157.11C157.473 29.1071 157.776 29.0335 158.02 28.8863C158.264 28.7391 158.453 28.5358 158.585 28.2764C158.718 28.017 158.784 27.7121 158.784 27.3616C158.784 27.0111 158.714 26.7342 158.575 26.4888C158.435 26.2435 158.229 26.0542 157.957 25.921C157.686 25.7878 157.347 25.7212 156.943 25.7212H154.809V29.1071ZM158.763 37.0985L155.039 30.453L159.286 29.9273L163.427 37.0985H158.763Z" fill="black"/>
<path d="M170.713 37.3099C169.668 37.3099 168.737 37.1908 167.921 36.9524C167.105 36.7141 166.387 36.3706 165.766 35.922C165.146 35.4733 164.592 34.9476 164.104 34.3447L166.53 31.5897C167.227 32.501 167.945 33.1074 168.684 33.4088C169.424 33.7103 170.142 33.861 170.839 33.861C171.146 33.861 171.425 33.8294 171.676 33.7664C171.927 33.7033 172.118 33.5981 172.251 33.4509C172.383 33.3037 172.45 33.1179 172.45 32.8936C172.45 32.6973 172.394 32.5291 172.282 32.3889C172.171 32.2487 172.017 32.126 171.822 32.0209C171.627 31.9157 171.411 31.8211 171.174 31.737C170.937 31.6528 170.7 31.5862 170.462 31.5372C170.225 31.4881 169.995 31.4355 169.772 31.3794C168.949 31.1972 168.231 30.9658 167.618 30.6854C167.004 30.405 166.492 30.0721 166.08 29.6865C165.669 29.301 165.362 28.8558 165.16 28.3511C164.958 27.8464 164.857 27.2786 164.857 26.6477C164.857 25.9607 165.017 25.3298 165.338 24.7549C165.658 24.1801 166.084 23.6859 166.614 23.2723C167.144 22.8587 167.754 22.5433 168.444 22.326C169.134 22.1087 169.856 22 170.609 22C171.641 22 172.519 22.1016 173.245 22.3049C173.97 22.5082 174.58 22.7991 175.075 23.1777C175.57 23.5562 175.999 23.9979 176.361 24.5026L173.893 26.9C173.6 26.5776 173.283 26.3112 172.941 26.1009C172.6 25.8906 172.247 25.7328 171.885 25.6277C171.522 25.5225 171.153 25.47 170.776 25.47C170.428 25.47 170.124 25.505 169.866 25.5751C169.608 25.6452 169.41 25.7469 169.27 25.8801C169.131 26.0132 169.061 26.192 169.061 26.4163C169.061 26.6126 169.138 26.7844 169.291 26.9316C169.444 27.0788 169.64 27.2015 169.877 27.2996C170.114 27.3977 170.368 27.4784 170.64 27.5414C170.912 27.6045 171.16 27.6571 171.383 27.6992C172.15 27.8534 172.851 28.0532 173.485 28.2985C174.12 28.5439 174.674 28.8523 175.148 29.2238C175.622 29.5954 175.985 30.0475 176.236 30.5803C176.487 31.1131 176.612 31.7369 176.612 32.452C176.612 33.5035 176.351 34.3903 175.828 35.1123C175.305 35.8343 174.601 36.3811 173.715 36.7526C172.83 37.1242 171.829 37.3099 170.713 37.3099Z" fill="black"/>
<path d="M179.039 37.0995V22.3784H189.686V25.8063H183.013V33.6716H190V37.0995H179.039ZM181.005 31.2531V28.0145H188.849V31.2531H181.005Z" fill="black"/>
<path fill-rule="evenodd" clip-rule="evenodd" d="M112.518 22.3336C112.518 23.6225 111.493 24.6673 110.227 24.6673C108.962 24.6673 107.937 23.6225 107.937 22.3336C107.937 21.0448 108.962 20 110.227 20C111.493 20 112.518 21.0448 112.518 22.3336ZM104.658 26.9964C105.923 26.9964 106.949 25.9516 106.949 24.6627C106.949 23.3739 105.923 22.3291 104.658 22.3291C103.393 22.3291 102.367 23.3739 102.367 24.6627C102.367 25.9516 103.393 26.9964 104.658 26.9964ZM105.254 30.2219C105.254 31.5107 104.229 32.5555 102.964 32.5555C101.699 32.5555 100.673 31.5107 100.673 30.2219C100.673 28.933 101.699 27.8882 102.964 27.8882C104.229 27.8882 105.254 28.933 105.254 30.2219ZM105.115 37.8838C106.38 37.8838 107.406 36.839 107.406 35.5502C107.406 34.2614 106.38 33.2166 105.115 33.2166C103.85 33.2166 102.825 34.2614 102.825 35.5502C102.825 36.839 103.85 37.8838 105.115 37.8838ZM118.093 35.5502C118.093 36.839 117.067 37.8838 115.802 37.8838C114.537 37.8838 113.511 36.839 113.511 35.5502C113.511 34.2614 114.537 33.2166 115.802 33.2166C117.067 33.2166 118.093 34.2614 118.093 35.5502ZM112.749 37.6664C112.749 38.9552 111.724 40 110.459 40C109.194 40 108.168 38.9552 108.168 37.6664C108.168 36.3776 109.194 35.3328 110.459 35.3328C111.724 35.3328 112.749 36.3776 112.749 37.6664ZM115.802 27.1206C117.067 27.1206 118.093 26.0758 118.093 24.787C118.093 23.4982 117.067 22.4534 115.802 22.4534C114.537 22.4534 113.511 23.4982 113.511 24.787C113.511 26.0758 114.537 27.1206 115.802 27.1206ZM120.566 30.2218C120.566 31.5106 119.54 32.5554 118.275 32.5554C117.01 32.5554 115.984 31.5106 115.984 30.2218C115.984 28.933 117.01 27.8882 118.275 27.8882C119.54 27.8882 120.566 28.933 120.566 30.2218Z" fill="url(#paint0_linear_961_2462)"/>
<defs>
<linearGradient id="paint0_linear_961_2462" x1="119.708" y1="21.2928" x2="104.669" y2="36.3617" gradientUnits="userSpaceOnUse">
<stop stop-color="#8F00FF"/>
<stop offset="1" stop-color="#E93B5C"/>
</linearGradient>
</defs>
</svg>
