<svg width="346" height="203" viewBox="0 0 346 203" fill="none" xmlns="http://www.w3.org/2000/svg">
<path d="M1.97869 32H0.348011L4.01207 21.8182H5.78693L9.45099 32H7.82031L4.94176 23.6676H4.86222L1.97869 32ZM2.25213 28.0128H7.5419V29.3054H2.25213V28.0128ZM16.3777 24.3636L13.6085 32H12.0176L9.24343 24.3636H10.8393L12.7733 30.2401H12.8528L14.7818 24.3636H16.3777ZM20.8061 32.1541C20.0537 32.1541 19.4058 31.9934 18.8622 31.6719C18.322 31.3471 17.9044 30.8913 17.6094 30.3047C17.3177 29.7147 17.1719 29.0237 17.1719 28.2315C17.1719 27.4493 17.3177 26.7599 17.6094 26.1634C17.9044 25.5668 18.3153 25.1011 18.8423 24.7663C19.3726 24.4316 19.9924 24.2642 20.7017 24.2642C21.1326 24.2642 21.5502 24.3355 21.9545 24.478C22.3589 24.6205 22.7218 24.8442 23.0433 25.1491C23.3648 25.4541 23.6184 25.8501 23.804 26.3374C23.9896 26.8213 24.0824 27.4096 24.0824 28.1023V28.6293H18.0121V27.5156H22.6257C22.6257 27.1245 22.5462 26.7782 22.3871 26.4766C22.228 26.1716 22.0043 25.9313 21.7159 25.7557C21.4309 25.58 21.0961 25.4922 20.7116 25.4922C20.294 25.4922 19.9295 25.5949 19.6179 25.8004C19.3097 26.0026 19.071 26.2678 18.902 26.5959C18.7363 26.9207 18.6534 27.2737 18.6534 27.6548V28.5249C18.6534 29.0353 18.7429 29.4695 18.9219 29.8274C19.1042 30.1854 19.3577 30.4588 19.6825 30.6477C20.0073 30.8333 20.3868 30.9261 20.821 30.9261C21.1027 30.9261 21.3596 30.8864 21.5916 30.8068C21.8236 30.724 22.0241 30.6013 22.1932 30.4389C22.3622 30.2765 22.4915 30.076 22.581 29.8374L23.9879 30.0909C23.8752 30.5052 23.6731 30.8681 23.3814 31.1797C23.093 31.4879 22.7301 31.7282 22.2926 31.9006C21.8584 32.0696 21.3629 32.1541 20.8061 32.1541ZM25.7317 32V24.3636H27.1685V25.5767H27.248C27.3873 25.1657 27.6325 24.8426 27.9838 24.6072C28.3385 24.3686 28.7395 24.2493 29.187 24.2493C29.2798 24.2493 29.3891 24.2526 29.5151 24.2592C29.6444 24.2659 29.7454 24.2741 29.8184 24.2841V25.706C29.7587 25.6894 29.6526 25.6712 29.5002 25.6513C29.3477 25.6281 29.1953 25.6165 29.0428 25.6165C28.6915 25.6165 28.3783 25.6911 28.1032 25.8402C27.8314 25.986 27.6159 26.1899 27.4569 26.4517C27.2978 26.7102 27.2182 27.0052 27.2182 27.3366V32H25.7317ZM33.2587 32.169C32.7748 32.169 32.3373 32.0795 31.9462 31.9006C31.5551 31.7183 31.2452 31.4548 31.0165 31.1101C30.7911 30.7654 30.6784 30.3428 30.6784 29.8423C30.6784 29.4115 30.7613 29.0568 30.927 28.7784C31.0927 28.5 31.3165 28.2796 31.5982 28.1172C31.8799 27.9548 32.1948 27.8321 32.5428 27.7493C32.8908 27.6664 33.2454 27.6035 33.6067 27.5604C34.0641 27.5073 34.4353 27.4643 34.7203 27.4311C35.0054 27.3946 35.2125 27.3366 35.3418 27.2571C35.4711 27.1776 35.5357 27.0483 35.5357 26.8693V26.8345C35.5357 26.4003 35.4131 26.0639 35.1678 25.8253C34.9258 25.5866 34.5646 25.4673 34.084 25.4673C33.5835 25.4673 33.1891 25.5784 32.9007 25.8004C32.6157 26.0192 32.4185 26.2628 32.3091 26.5312L30.9121 26.2131C31.0778 25.7491 31.3198 25.3745 31.638 25.0895C31.9595 24.8011 32.329 24.5923 32.7466 24.4631C33.1642 24.3305 33.6034 24.2642 34.0641 24.2642C34.369 24.2642 34.6922 24.3007 35.0336 24.3736C35.3783 24.4432 35.6998 24.5724 35.998 24.7614C36.2997 24.9503 36.5466 25.2204 36.7388 25.5717C36.931 25.9197 37.0272 26.3722 37.0272 26.929V32H35.5755V30.956H35.5158C35.4197 31.1482 35.2755 31.3371 35.0833 31.5227C34.891 31.7083 34.6441 31.8625 34.3425 31.9851C34.0409 32.1077 33.6796 32.169 33.2587 32.169ZM33.5819 30.9759C33.9928 30.9759 34.3442 30.8946 34.6358 30.7322C34.9308 30.5698 35.1545 30.3577 35.307 30.0959C35.4628 29.8307 35.5407 29.5473 35.5407 29.2457V28.2614C35.4876 28.3144 35.3849 28.3641 35.2324 28.4105C35.0833 28.4536 34.9126 28.4917 34.7203 28.5249C34.5281 28.5547 34.3409 28.5829 34.1586 28.6094C33.9763 28.6326 33.8238 28.6525 33.7012 28.669C33.4128 28.7055 33.1493 28.7668 32.9107 28.853C32.6754 28.9392 32.4864 29.0634 32.3439 29.2259C32.2047 29.3849 32.1351 29.5971 32.1351 29.8622C32.1351 30.2301 32.271 30.5085 32.5428 30.6974C32.8146 30.883 33.1609 30.9759 33.5819 30.9759ZM42.2088 35.0227C41.6023 35.0227 41.0803 34.9432 40.6428 34.7841C40.2086 34.625 39.8539 34.4145 39.5788 34.1527C39.3037 33.8909 39.0982 33.6042 38.9624 33.2926L40.2401 32.7656C40.3295 32.9115 40.4489 33.0656 40.598 33.228C40.7505 33.3937 40.956 33.5346 41.2145 33.6506C41.4763 33.7666 41.8127 33.8246 42.2237 33.8246C42.7872 33.8246 43.2528 33.687 43.6207 33.4119C43.9886 33.1402 44.1726 32.706 44.1726 32.1094V30.608H44.0781C43.9886 30.7704 43.8594 30.951 43.6903 31.1499C43.5246 31.3487 43.2959 31.5211 43.0043 31.6669C42.7126 31.8127 42.3331 31.8857 41.8658 31.8857C41.2625 31.8857 40.719 31.7448 40.2351 31.4631C39.7545 31.178 39.3733 30.7588 39.0916 30.2053C38.8132 29.6484 38.674 28.964 38.674 28.152C38.674 27.34 38.8116 26.6439 39.0866 26.0639C39.3651 25.4839 39.7462 25.0398 40.2301 24.7315C40.714 24.42 41.2625 24.2642 41.8757 24.2642C42.3497 24.2642 42.7325 24.3438 43.0241 24.5028C43.3158 24.6586 43.5429 24.8409 43.7053 25.0497C43.871 25.2585 43.9986 25.4425 44.0881 25.6016H44.1974V24.3636H45.6541V32.169C45.6541 32.8253 45.5017 33.3639 45.1967 33.7848C44.8918 34.2057 44.4792 34.5173 43.9588 34.7195C43.4418 34.9216 42.8584 35.0227 42.2088 35.0227ZM42.1939 30.6527C42.6214 30.6527 42.9827 30.5533 43.2777 30.3544C43.576 30.1522 43.8014 29.8639 43.9538 29.4893C44.1096 29.1115 44.1875 28.6591 44.1875 28.1321C44.1875 27.6184 44.1113 27.166 43.9588 26.7749C43.8063 26.3838 43.5826 26.0788 43.2876 25.8601C42.9927 25.638 42.6281 25.527 42.1939 25.527C41.7464 25.527 41.3736 25.643 41.0753 25.875C40.777 26.1037 40.5516 26.4152 40.3991 26.8097C40.25 27.2041 40.1754 27.6449 40.1754 28.1321C40.1754 28.6326 40.2517 29.0717 40.4041 29.4496C40.5566 29.8274 40.782 30.1224 41.0803 30.3345C41.3819 30.5466 41.7531 30.6527 42.1939 30.6527ZM50.9389 32.1541C50.1866 32.1541 49.5386 31.9934 48.995 31.6719C48.4548 31.3471 48.0372 30.8913 47.7422 30.3047C47.4505 29.7147 47.3047 29.0237 47.3047 28.2315C47.3047 27.4493 47.4505 26.7599 47.7422 26.1634C48.0372 25.5668 48.4482 25.1011 48.9751 24.7663C49.5054 24.4316 50.1252 24.2642 50.8345 24.2642C51.2654 24.2642 51.683 24.3355 52.0874 24.478C52.4917 24.6205 52.8546 24.8442 53.1761 25.1491C53.4976 25.4541 53.7512 25.8501 53.9368 26.3374C54.1224 26.8213 54.2152 27.4096 54.2152 28.1023V28.6293H48.1449V27.5156H52.7585C52.7585 27.1245 52.679 26.7782 52.5199 26.4766C52.3608 26.1716 52.1371 25.9313 51.8487 25.7557C51.5637 25.58 51.2289 25.4922 50.8445 25.4922C50.4268 25.4922 50.0623 25.5949 49.7507 25.8004C49.4425 26.0026 49.2038 26.2678 49.0348 26.5959C48.8691 26.9207 48.7862 27.2737 48.7862 27.6548V28.5249C48.7862 29.0353 48.8757 29.4695 49.0547 29.8274C49.237 30.1854 49.4905 30.4588 49.8153 30.6477C50.1402 30.8333 50.5196 30.9261 50.9538 30.9261C51.2356 30.9261 51.4924 30.8864 51.7244 30.8068C51.9564 30.724 52.157 30.6013 52.326 30.4389C52.495 30.2765 52.6243 30.076 52.7138 29.8374L54.1207 30.0909C54.008 30.5052 53.8059 30.8681 53.5142 31.1797C53.2259 31.4879 52.8629 31.7282 52.4254 31.9006C51.9912 32.0696 51.4957 32.1541 50.9389 32.1541ZM1.11861 49V38.8182H4.74787C5.54001 38.8182 6.19626 38.9624 6.71662 39.2507C7.23698 39.5391 7.62642 39.9335 7.88494 40.4339C8.14347 40.9311 8.27273 41.4912 8.27273 42.1143C8.27273 42.7408 8.14181 43.3042 7.87997 43.8047C7.62145 44.3018 7.23035 44.6963 6.70668 44.9879C6.18632 45.2763 5.53172 45.4205 4.7429 45.4205H2.24716V44.1179H4.60369C5.10417 44.1179 5.51018 44.0317 5.82173 43.8594C6.13329 43.6837 6.36198 43.4451 6.50781 43.1435C6.65365 42.8419 6.72656 42.4988 6.72656 42.1143C6.72656 41.7299 6.65365 41.3885 6.50781 41.0902C6.36198 40.7919 6.13163 40.5582 5.81676 40.3892C5.50521 40.2202 5.09422 40.1357 4.58381 40.1357H2.65483V49H1.11861ZM9.95437 49V41.3636H11.3912V42.5767H11.4707C11.6099 42.1657 11.8552 41.8426 12.2065 41.6072C12.5611 41.3686 12.9622 41.2493 13.4096 41.2493C13.5024 41.2493 13.6118 41.2526 13.7377 41.2592C13.867 41.2659 13.9681 41.2741 14.041 41.2841V42.706C13.9814 42.6894 13.8753 42.6712 13.7228 42.6513C13.5704 42.6281 13.4179 42.6165 13.2654 42.6165C12.9141 42.6165 12.6009 42.6911 12.3258 42.8402C12.054 42.986 11.8386 43.1899 11.6795 43.4517C11.5204 43.7102 11.4409 44.0052 11.4409 44.3366V49H9.95437ZM15.3274 49V41.3636H16.8139V49H15.3274ZM16.0781 40.1854C15.8196 40.1854 15.5975 40.0992 15.4119 39.9268C15.2296 39.7512 15.1385 39.5424 15.1385 39.3004C15.1385 39.0552 15.2296 38.8464 15.4119 38.674C15.5975 38.4983 15.8196 38.4105 16.0781 38.4105C16.3366 38.4105 16.5571 38.4983 16.7393 38.674C16.925 38.8464 17.0178 39.0552 17.0178 39.3004C17.0178 39.5424 16.925 39.7512 16.7393 39.9268C16.5571 40.0992 16.3366 40.1854 16.0781 40.1854ZM22.0304 49.1541C21.2913 49.1541 20.6549 48.9867 20.1213 48.652C19.591 48.3139 19.1833 47.8482 18.8983 47.255C18.6132 46.6617 18.4707 45.9822 18.4707 45.2166C18.4707 44.4411 18.6165 43.7566 18.9082 43.1634C19.1999 42.5668 19.6109 42.1011 20.1412 41.7663C20.6715 41.4316 21.2962 41.2642 22.0154 41.2642C22.5955 41.2642 23.1125 41.3719 23.5666 41.5874C24.0207 41.7995 24.3869 42.0978 24.6653 42.4822C24.947 42.8667 25.1144 43.3158 25.1674 43.8295H23.7207C23.6412 43.4716 23.4589 43.1634 23.1738 42.9048C22.8921 42.6463 22.5143 42.517 22.0403 42.517C21.626 42.517 21.2631 42.6264 20.9515 42.8452C20.6433 43.0606 20.403 43.3688 20.2306 43.7699C20.0583 44.1676 19.9721 44.6383 19.9721 45.1818C19.9721 45.7386 20.0566 46.2192 20.2257 46.6236C20.3947 47.0279 20.6333 47.3411 20.9416 47.5632C21.2531 47.7853 21.6194 47.8963 22.0403 47.8963C22.322 47.8963 22.5772 47.8449 22.8059 47.7422C23.0379 47.6361 23.2318 47.4853 23.3876 47.2898C23.5467 47.0942 23.6577 46.8589 23.7207 46.5838H25.1674C25.1144 47.0777 24.9537 47.5185 24.6852 47.9062C24.4167 48.294 24.0571 48.599 23.6064 48.821C23.1589 49.0431 22.6336 49.1541 22.0304 49.1541ZM30.0483 49.1541C29.2959 49.1541 28.648 48.9934 28.1044 48.6719C27.5642 48.3471 27.1465 47.8913 26.8516 47.3047C26.5599 46.7147 26.4141 46.0237 26.4141 45.2315C26.4141 44.4493 26.5599 43.7599 26.8516 43.1634C27.1465 42.5668 27.5575 42.1011 28.0845 41.7663C28.6148 41.4316 29.2346 41.2642 29.9439 41.2642C30.3748 41.2642 30.7924 41.3355 31.1967 41.478C31.6011 41.6205 31.964 41.8442 32.2855 42.1491C32.607 42.4541 32.8606 42.8501 33.0462 43.3374C33.2318 43.8213 33.3246 44.4096 33.3246 45.1023V45.6293H27.2543V44.5156H31.8679C31.8679 44.1245 31.7884 43.7782 31.6293 43.4766C31.4702 43.1716 31.2464 42.9313 30.9581 42.7557C30.6731 42.58 30.3383 42.4922 29.9538 42.4922C29.5362 42.4922 29.1716 42.5949 28.8601 42.8004C28.5518 43.0026 28.3132 43.2678 28.1442 43.5959C27.9785 43.9207 27.8956 44.2737 27.8956 44.6548V45.5249C27.8956 46.0353 27.9851 46.4695 28.1641 46.8274C28.3464 47.1854 28.5999 47.4588 28.9247 47.6477C29.2495 47.8333 29.629 47.9261 30.0632 47.9261C30.3449 47.9261 30.6018 47.8864 30.8338 47.8068C31.0658 47.724 31.2663 47.6013 31.4354 47.4389C31.6044 47.2765 31.7337 47.076 31.8232 46.8374L33.2301 47.0909C33.1174 47.5052 32.9152 47.8681 32.6236 48.1797C32.3352 48.4879 31.9723 48.7282 31.5348 48.9006C31.1006 49.0696 30.6051 49.1541 30.0483 49.1541Z" fill="#49454E"/>
<path d="M7.27841 89.1818V67.3636H8.67614V89.1818H7.27841ZM10.9858 74.5653C10.9176 73.8778 10.625 73.3437 10.108 72.9631C9.59091 72.5824 8.8892 72.392 8.00284 72.392C7.40057 72.392 6.89205 72.4773 6.47727 72.6477C6.0625 72.8125 5.74432 73.0426 5.52273 73.3381C5.30682 73.6335 5.19886 73.9688 5.19886 74.3438C5.1875 74.6562 5.25284 74.929 5.39489 75.1619C5.54261 75.3949 5.74432 75.5966 6 75.767C6.25568 75.9318 6.55114 76.0767 6.88636 76.2017C7.22159 76.321 7.57955 76.4233 7.96023 76.5085L9.52841 76.8835C10.2898 77.054 10.9886 77.2812 11.625 77.5653C12.2614 77.8494 12.8125 78.1989 13.2784 78.6136C13.7443 79.0284 14.1051 79.517 14.3608 80.0795C14.6222 80.642 14.7557 81.2869 14.7614 82.0142C14.7557 83.0824 14.483 84.0085 13.9432 84.7926C13.4091 85.571 12.6364 86.1761 11.625 86.608C10.6193 87.0341 9.40625 87.2472 7.9858 87.2472C6.5767 87.2472 5.34943 87.0312 4.30398 86.5994C3.2642 86.1676 2.4517 85.5284 1.86648 84.6818C1.28693 83.8295 0.982955 82.7756 0.954545 81.5199H4.52557C4.56534 82.1051 4.73295 82.5937 5.02841 82.9858C5.32955 83.3722 5.73011 83.6648 6.23011 83.8636C6.7358 84.0568 7.30682 84.1534 7.94318 84.1534C8.56818 84.1534 9.1108 84.0625 9.57102 83.8807C10.0369 83.6989 10.3977 83.446 10.6534 83.1222C10.9091 82.7983 11.0369 82.4261 11.0369 82.0057C11.0369 81.6136 10.9205 81.2841 10.6875 81.017C10.4602 80.75 10.125 80.5227 9.68182 80.3352C9.24432 80.1477 8.70739 79.9773 8.07102 79.8239L6.17045 79.3466C4.69886 78.9886 3.53693 78.429 2.68466 77.6676C1.83239 76.9062 1.40909 75.8807 1.41477 74.5909C1.40909 73.5341 1.69034 72.6108 2.25852 71.821C2.83239 71.0312 3.61932 70.4148 4.61932 69.9716C5.61932 69.5284 6.75568 69.3068 8.02841 69.3068C9.32386 69.3068 10.4545 69.5284 11.4205 69.9716C12.392 70.4148 13.1477 71.0312 13.6875 71.821C14.2273 72.6108 14.5057 73.5256 14.5227 74.5653H10.9858ZM16.8771 83.9318V81.0256L24.1641 69.5455H26.6697V73.5682H25.1868L20.593 80.8381V80.9744H30.9482V83.9318H16.8771ZM25.255 87V83.0455L25.3232 81.7585V69.5455H28.7834V87H25.255ZM40.7663 69.5455V87H37.076V73.0483H36.9737L32.9766 75.554V72.2812L37.2976 69.5455H40.7663ZM51.4261 87.2386C50.1136 87.2386 48.946 87.0256 47.9233 86.5994C46.9063 86.1676 46.108 85.5795 45.5284 84.8352C44.9489 84.0909 44.6591 83.2472 44.6591 82.304C44.6591 81.5767 44.8239 80.9091 45.1534 80.3011C45.4886 79.6875 45.9432 79.179 46.517 78.7756C47.0909 78.3665 47.733 78.1051 48.4432 77.9915V77.8722C47.5114 77.6847 46.7557 77.233 46.1761 76.517C45.5966 75.7955 45.3068 74.9574 45.3068 74.0028C45.3068 73.0994 45.571 72.2955 46.0994 71.5909C46.6278 70.8807 47.3523 70.3239 48.2727 69.9205C49.1989 69.5114 50.25 69.3068 51.4261 69.3068C52.6023 69.3068 53.6506 69.5114 54.571 69.9205C55.4972 70.3295 56.2244 70.8892 56.7528 71.5994C57.2813 72.304 57.5483 73.1051 57.554 74.0028C57.5483 74.9631 57.2528 75.8011 56.6676 76.517C56.0824 77.233 55.3324 77.6847 54.4176 77.8722V77.9915C55.1165 78.1051 55.75 78.3665 56.3182 78.7756C56.892 79.179 57.3466 79.6875 57.6818 80.3011C58.0227 80.9091 58.196 81.5767 58.2017 82.304C58.196 83.2472 57.9034 84.0909 57.3239 84.8352C56.7443 85.5795 55.9432 86.1676 54.9205 86.5994C53.9034 87.0256 52.7386 87.2386 51.4261 87.2386ZM51.4261 84.5284C52.0114 84.5284 52.5227 84.4233 52.9602 84.2131C53.3977 83.9972 53.7386 83.7017 53.983 83.3267C54.233 82.946 54.358 82.5085 54.358 82.0142C54.358 81.5085 54.2301 81.0625 53.9744 80.6761C53.7188 80.2841 53.3722 79.9773 52.9347 79.7557C52.4972 79.5284 51.9943 79.4148 51.4261 79.4148C50.8636 79.4148 50.3608 79.5284 49.9176 79.7557C49.4744 79.9773 49.125 80.2841 48.8693 80.6761C48.6193 81.0625 48.4943 81.5085 48.4943 82.0142C48.4943 82.5085 48.6165 82.946 48.8608 83.3267C49.1051 83.7017 49.4489 83.9972 49.892 84.2131C50.3352 84.4233 50.8466 84.5284 51.4261 84.5284ZM51.4261 76.7301C51.9148 76.7301 52.3494 76.6307 52.7301 76.4318C53.1108 76.233 53.4091 75.9574 53.625 75.6051C53.8409 75.2528 53.9489 74.8466 53.9489 74.3864C53.9489 73.9318 53.8409 73.5341 53.625 73.1932C53.4091 72.8466 53.1136 72.5767 52.7386 72.3835C52.3636 72.1847 51.9261 72.0852 51.4261 72.0852C50.9318 72.0852 50.4943 72.1847 50.1136 72.3835C49.733 72.5767 49.4347 72.8466 49.2188 73.1932C49.0085 73.5341 48.9034 73.9318 48.9034 74.3864C48.9034 74.8466 49.0114 75.2528 49.2273 75.6051C49.4432 75.9574 49.7415 76.233 50.1222 76.4318C50.5028 76.6307 50.9375 76.7301 51.4261 76.7301Z" fill="#6D23F9"/>
<rect x="95" y="49" width="15" height="135" rx="5" fill="#F6F6F6"/>
<rect x="124" width="15" height="184" rx="5" fill="#F6F6F6"/>
<rect x="153" y="38" width="15" height="146" rx="5" fill="#F6F6F6"/>
<rect x="182" y="78" width="15" height="106" rx="5" fill="#6D23F9"/>
<rect x="211" y="38" width="15" height="146" rx="5" fill="#F6F6F6"/>
<rect x="240" y="62" width="15" height="122" rx="5" fill="#F6F6F6"/>
<rect x="269" y="49" width="15" height="135" rx="5" fill="#F6F6F6"/>
<rect x="298" width="15" height="184" rx="5" fill="#F6F6F6"/>
<rect x="327" y="38" width="15" height="146" rx="5" fill="#F6F6F6"/>
<path d="M96.1186 202V191.818H102.433V193.141H97.6548V196.243H101.98V197.56H97.6548V202H96.1186ZM104.322 202V191.818H107.951C108.74 191.818 109.394 191.954 109.915 192.226C110.438 192.498 110.83 192.874 111.088 193.354C111.347 193.832 111.476 194.384 111.476 195.01C111.476 195.633 111.345 196.182 111.083 196.656C110.825 197.126 110.433 197.492 109.91 197.754C109.389 198.016 108.735 198.147 107.946 198.147H105.197V196.825H107.807C108.304 196.825 108.708 196.753 109.02 196.611C109.335 196.468 109.565 196.261 109.711 195.989C109.857 195.718 109.93 195.391 109.93 195.01C109.93 194.625 109.855 194.292 109.706 194.011C109.56 193.729 109.33 193.513 109.015 193.364C108.703 193.212 108.294 193.136 107.787 193.136H105.858V202H104.322ZM109.348 197.406L111.864 202H110.114L107.648 197.406H109.348Z" fill="#7A757F"/>
<path d="M124.783 202H123.152L126.817 191.818H128.591L132.255 202H130.625L127.746 193.668H127.667L124.783 202ZM125.057 198.013H130.346V199.305H125.057V198.013ZM133.726 202V191.818H135.262V200.678H139.876V202H133.726Z" fill="#7A757F"/>
<path d="M160.184 195.129H158.633C158.573 194.798 158.462 194.506 158.3 194.254C158.138 194.002 157.939 193.789 157.703 193.613C157.468 193.437 157.205 193.305 156.913 193.215C156.625 193.126 156.318 193.081 155.993 193.081C155.406 193.081 154.881 193.228 154.417 193.523C153.956 193.818 153.592 194.251 153.323 194.821C153.058 195.391 152.926 196.087 152.926 196.909C152.926 197.738 153.058 198.437 153.323 199.007C153.592 199.577 153.958 200.008 154.422 200.3C154.886 200.591 155.408 200.737 155.988 200.737C156.31 200.737 156.615 200.694 156.903 200.608C157.195 200.518 157.458 200.388 157.693 200.215C157.929 200.043 158.128 199.832 158.29 199.584C158.456 199.332 158.57 199.044 158.633 198.719L160.184 198.724C160.101 199.224 159.941 199.685 159.702 200.106C159.467 200.523 159.163 200.885 158.792 201.19C158.424 201.491 158.003 201.725 157.529 201.891C157.055 202.056 156.538 202.139 155.978 202.139C155.097 202.139 154.311 201.93 153.622 201.513C152.932 201.092 152.389 200.49 151.991 199.708C151.597 198.926 151.399 197.993 151.399 196.909C151.399 195.822 151.598 194.889 151.996 194.11C152.394 193.328 152.937 192.728 153.627 192.31C154.316 191.889 155.1 191.679 155.978 191.679C156.518 191.679 157.022 191.757 157.49 191.913C157.96 192.065 158.383 192.29 158.757 192.589C159.132 192.884 159.442 193.245 159.687 193.673C159.932 194.097 160.098 194.582 160.184 195.129ZM162.814 202H161.183L164.848 191.818H166.622L170.286 202H168.656L165.777 193.668H165.698L162.814 202ZM163.088 198.013H168.377V199.305H163.088V198.013Z" fill="#7A757F"/>
<path d="M182.499 202V191.818H184.036V196.68H184.16L188.431 191.818H190.365L186.258 196.402L190.379 202H188.53L185.239 197.451L184.036 198.833V202H182.499ZM191.796 202V191.818H195.426C196.214 191.818 196.869 191.954 197.389 192.226C197.913 192.498 198.304 192.874 198.563 193.354C198.821 193.832 198.95 194.384 198.95 195.01C198.95 195.633 198.82 196.182 198.558 196.656C198.299 197.126 197.908 197.492 197.384 197.754C196.864 198.016 196.209 198.147 195.421 198.147H192.671V196.825H195.281C195.779 196.825 196.183 196.753 196.494 196.611C196.809 196.468 197.04 196.261 197.186 195.989C197.331 195.718 197.404 195.391 197.404 195.01C197.404 194.625 197.33 194.292 197.181 194.011C197.035 193.729 196.804 193.513 196.49 193.364C196.178 193.212 195.769 193.136 195.262 193.136H193.333V202H191.796ZM196.823 197.406L199.338 202H197.588L195.122 197.406H196.823Z" fill="#7A757F"/>
<path d="M217.841 191.818H219.382V198.515C219.382 199.228 219.214 199.859 218.88 200.409C218.545 200.956 218.074 201.387 217.468 201.702C216.861 202.013 216.15 202.169 215.335 202.169C214.523 202.169 213.814 202.013 213.207 201.702C212.6 201.387 212.13 200.956 211.795 200.409C211.46 199.859 211.293 199.228 211.293 198.515V191.818H212.829V198.391C212.829 198.851 212.93 199.261 213.132 199.619C213.338 199.977 213.628 200.258 214.002 200.464C214.377 200.666 214.821 200.767 215.335 200.767C215.852 200.767 216.298 200.666 216.672 200.464C217.05 200.258 217.338 199.977 217.537 199.619C217.739 199.261 217.841 198.851 217.841 198.391V191.818ZM221.615 202V191.818H223.151V196.68H223.276L227.546 191.818H229.48L225.374 196.402L229.495 202H227.646L224.355 197.451L223.151 198.833V202H221.615Z" fill="#7A757F"/>
<path d="M249.532 195.129H247.981C247.922 194.798 247.81 194.506 247.648 194.254C247.486 194.002 247.287 193.789 247.051 193.613C246.816 193.437 246.553 193.305 246.261 193.215C245.973 193.126 245.666 193.081 245.341 193.081C244.755 193.081 244.229 193.228 243.765 193.523C243.305 193.818 242.94 194.251 242.672 194.821C242.406 195.391 242.274 196.087 242.274 196.909C242.274 197.738 242.406 198.437 242.672 199.007C242.94 199.577 243.306 200.008 243.77 200.3C244.234 200.591 244.756 200.737 245.336 200.737C245.658 200.737 245.963 200.694 246.251 200.608C246.543 200.518 246.806 200.388 247.042 200.215C247.277 200.043 247.476 199.832 247.638 199.584C247.804 199.332 247.918 199.044 247.981 198.719L249.532 198.724C249.449 199.224 249.289 199.685 249.05 200.106C248.815 200.523 248.511 200.885 248.14 201.19C247.772 201.491 247.351 201.725 246.877 201.891C246.404 202.056 245.886 202.139 245.326 202.139C244.445 202.139 243.659 201.93 242.97 201.513C242.28 201.092 241.737 200.49 241.339 199.708C240.945 198.926 240.748 197.993 240.748 196.909C240.748 195.822 240.946 194.889 241.344 194.11C241.742 193.328 242.285 192.728 242.975 192.31C243.664 191.889 244.448 191.679 245.326 191.679C245.867 191.679 246.37 191.757 246.838 191.913C247.308 192.065 247.731 192.29 248.105 192.589C248.48 192.884 248.79 193.245 249.035 193.673C249.28 194.097 249.446 194.582 249.532 195.129ZM251.371 202V191.818H252.907V200.678H257.52V202H251.371Z" fill="#7A757F"/>
<path d="M276.417 191.818H277.958V198.515C277.958 199.228 277.791 199.859 277.456 200.409C277.121 200.956 276.651 201.387 276.044 201.702C275.438 202.013 274.727 202.169 273.911 202.169C273.099 202.169 272.39 202.013 271.783 201.702C271.177 201.387 270.706 200.956 270.371 200.409C270.037 199.859 269.869 199.228 269.869 198.515V191.818H271.406V198.391C271.406 198.851 271.507 199.261 271.709 199.619C271.914 199.977 272.204 200.258 272.579 200.464C272.953 200.666 273.398 200.767 273.911 200.767C274.428 200.767 274.874 200.666 275.249 200.464C275.626 200.258 275.915 199.977 276.114 199.619C276.316 199.261 276.417 198.851 276.417 198.391V191.818ZM285.745 194.493C285.692 194.022 285.473 193.658 285.089 193.399C284.704 193.137 284.22 193.006 283.637 193.006C283.219 193.006 282.858 193.073 282.553 193.205C282.248 193.335 282.011 193.513 281.842 193.742C281.676 193.968 281.594 194.224 281.594 194.513C281.594 194.755 281.65 194.964 281.763 195.139C281.879 195.315 282.029 195.462 282.215 195.582C282.404 195.698 282.606 195.795 282.822 195.875C283.037 195.951 283.244 196.014 283.443 196.064L284.437 196.322C284.762 196.402 285.095 196.51 285.437 196.646C285.778 196.781 286.095 196.96 286.386 197.183C286.678 197.405 286.913 197.68 287.092 198.008C287.274 198.336 287.366 198.729 287.366 199.186C287.366 199.763 287.216 200.275 286.918 200.722C286.623 201.17 286.194 201.523 285.631 201.781C285.07 202.04 284.393 202.169 283.597 202.169C282.835 202.169 282.175 202.048 281.618 201.806C281.062 201.564 280.626 201.221 280.311 200.777C279.996 200.33 279.822 199.799 279.789 199.186H281.33C281.36 199.554 281.479 199.861 281.688 200.106C281.9 200.348 282.17 200.528 282.498 200.648C282.83 200.764 283.193 200.822 283.587 200.822C284.021 200.822 284.408 200.754 284.746 200.618C285.087 200.479 285.355 200.286 285.551 200.041C285.747 199.793 285.844 199.503 285.844 199.171C285.844 198.87 285.758 198.623 285.586 198.43C285.417 198.238 285.186 198.079 284.895 197.953C284.606 197.827 284.28 197.716 283.915 197.62L282.712 197.292C281.897 197.07 281.251 196.743 280.773 196.312C280.299 195.882 280.062 195.312 280.062 194.602C280.062 194.016 280.221 193.504 280.54 193.066C280.858 192.629 281.289 192.289 281.832 192.047C282.376 191.802 282.989 191.679 283.672 191.679C284.361 191.679 284.969 191.8 285.496 192.042C286.027 192.284 286.444 192.617 286.749 193.041C287.054 193.462 287.213 193.946 287.226 194.493H285.745Z" fill="#7A757F"/>
<path d="M299.652 202V191.818H305.966V193.141H301.188V196.243H305.514V197.56H301.188V202H299.652ZM307.855 202V191.818H309.391V200.678H314.005V202H307.855Z" fill="#7A757F"/>
<path d="M333.015 191.818H334.556V198.515C334.556 199.228 334.389 199.859 334.054 200.409C333.719 200.956 333.249 201.387 332.642 201.702C332.036 202.013 331.325 202.169 330.509 202.169C329.697 202.169 328.988 202.013 328.382 201.702C327.775 201.387 327.304 200.956 326.97 200.409C326.635 199.859 326.467 199.228 326.467 198.515V191.818H328.004V198.391C328.004 198.851 328.105 199.261 328.307 199.619C328.512 199.977 328.802 200.258 329.177 200.464C329.552 200.666 329.996 200.767 330.509 200.767C331.026 200.767 331.472 200.666 331.847 200.464C332.225 200.258 332.513 199.977 332.712 199.619C332.914 199.261 333.015 198.851 333.015 198.391V191.818ZM336.79 202V191.818H338.326V196.68H338.45L342.721 191.818H344.655L340.548 196.402L344.67 202H342.82L339.529 197.451L338.326 198.833V202H336.79Z" fill="#7A757F"/>
<rect y="57" width="345" height="4" rx="2" fill="#CFBDFF"/>
</svg>
