<svg width="12" height="12" viewBox="0 0 12 12" fill="none" xmlns="http://www.w3.org/2000/svg">
<path d="M11.7624 5.38814C11.762 5.38775 11.762 5.38713 11.7624 5.38674C11.9777 5.16082 12.0547 4.82859 11.9606 4.52158C11.8677 4.21284 11.623 3.99252 11.3247 3.94621L8.3128 3.47749C8.26962 3.47047 8.23168 3.441 8.21205 3.3989L6.86572 0.471524C6.73227 0.181031 6.46143 0 6.15919 0C5.85696 0 5.58612 0.181031 5.45267 0.471524L4.10634 3.3989C4.08671 3.441 4.04877 3.47047 4.00559 3.47749L0.993691 3.94621C0.694071 3.99252 0.450711 4.21284 0.357816 4.52158C0.264921 4.83031 0.340807 5.1615 0.556691 5.38744L2.73646 7.66647C2.76786 7.69875 2.78225 7.74646 2.7744 7.79418L2.26021 11.0106C2.20918 11.3306 2.32955 11.6464 2.57422 11.8372C2.81889 12.0281 3.13683 12.0519 3.40374 11.9018L6.0977 10.3833C6.13695 10.3609 6.18274 10.3609 6.222 10.3833L8.91596 11.9018C9.03241 11.9677 9.15801 12 9.28362 12C9.44586 12 9.6081 11.9453 9.74548 11.8372C9.99014 11.6464 10.1105 11.3306 10.0595 11.0106L9.54529 7.79277C9.53744 7.74646 9.55184 7.69875 9.58324 7.66647L11.7623 5.38954C11.7627 5.38915 11.7627 5.38854 11.7624 5.38814Z" fill="#6D23F9"/>
</svg>
