<svg width="31" height="36" viewBox="0 0 31 36" fill="none" xmlns="http://www.w3.org/2000/svg">
<g clip-path="url(#clip0_958_837)">
<path d="M21.375 21.5L26.7426 18.5303L28.6298 22.3303L22.9683 28.8003L21.375 21.5Z" fill="#3A2417" stroke="black" stroke-width="1.5" stroke-linecap="round" stroke-linejoin="round"/>
<path d="M4.38379 34.7403C5.17353 33.0803 5.40943 31.7403 5.87097 26.2403C6.33251 20.7403 6.45558 17.3903 6.45558 17.3903L23.0607 17.2803C23.0607 17.2803 22.9992 23.8903 23.8402 27.1503C25.194 32.4203 26.2588 34.7403 26.2588 34.7403" fill="#3A2417"/>
<path d="M4.38379 34.7403C5.17353 33.0803 5.40943 31.7403 5.87097 26.2403C6.33251 20.7403 6.45558 17.3903 6.45558 17.3903L23.0607 17.2803C23.0607 17.2803 22.9992 23.8903 23.8402 27.1503C25.194 32.4203 26.2588 34.7403 26.2588 34.7403" stroke="black" stroke-width="1.5" stroke-linecap="round" stroke-linejoin="round"/>
<path d="M2.26367 34.7402L28.938 34.7402" stroke="black" stroke-width="1.5" stroke-linecap="round" stroke-linejoin="round"/>
<path d="M9.37891 17.9902L9.56352 32.4302" stroke="black" stroke-width="1.5" stroke-linecap="round" stroke-linejoin="round"/>
<path d="M13.1016 34.6203V24.8203" stroke="black" stroke-width="1.5" stroke-linecap="round" stroke-linejoin="round"/>
<path d="M19.8604 17.8101L20.168 29.5201" stroke="black" stroke-width="1.5" stroke-linecap="round" stroke-linejoin="round"/>
</g>
<defs>
<clipPath id="clip0_958_837">
<rect width="30" height="35" fill="white" transform="translate(0.5 0.5)"/>
</clipPath>
</defs>
</svg>
