<svg width="31" height="36" viewBox="0 0 31 36" fill="none" xmlns="http://www.w3.org/2000/svg">
<g clip-path="url(#clip0_958_858)">
<path d="M15.2363 10.8489C15.1777 12.7771 14.5956 14.6527 13.5527 16.2734C12.5098 14.6527 11.9277 12.7771 11.8691 10.8489C11.929 8.92403 12.5111 7.05204 13.5527 5.43457C14.5943 7.05204 15.1764 8.92403 15.2363 10.8489Z" fill="#A28B66" stroke="black" stroke-width="1.57" stroke-miterlimit="10"/>
<path d="M10.0639 11.612C11.3815 13.011 12.2903 14.7468 12.6906 16.6294C10.8111 16.2348 9.07712 15.326 7.68049 14.0037C6.36333 12.6003 5.45481 10.8614 5.05371 8.97607C6.93249 9.37857 8.66535 10.2903 10.0639 11.612Z" fill="#A28B66" stroke="black" stroke-width="1.57" stroke-miterlimit="10"/>
<path d="M7.29495 15.6729C9.21356 15.7304 11.0797 16.3147 12.6905 17.3623C11.0797 18.4099 9.21356 18.9942 7.29495 19.0517C5.37634 18.9942 3.51017 18.4099 1.89941 17.3623C3.51017 16.3147 5.37634 15.7304 7.29495 15.6729Z" fill="#A28B66" stroke="black" stroke-width="1.57" stroke-miterlimit="10"/>
<path d="M7.82269 20.7106C9.22119 19.3889 10.954 18.4772 12.8328 18.0747C12.4327 19.9582 11.528 21.6965 10.2162 23.1023C8.81769 24.424 7.08484 25.3357 5.20605 25.7382C5.60622 23.8547 6.51091 22.1164 7.82269 20.7106Z" fill="#A28B66" stroke="black" stroke-width="1.57" stroke-miterlimit="10"/>
<path d="M11.8691 23.5191C11.9726 21.5949 12.6005 19.7361 13.6846 18.1455C14.6882 19.7877 15.2249 21.6742 15.2363 23.6005C15.1468 25.5369 14.5255 27.4107 13.4411 29.0148C12.4227 27.3632 11.8787 25.4614 11.8691 23.5191Z" fill="#A28B66" stroke="black" stroke-width="1.57" stroke-miterlimit="10"/>
<path d="M17.0516 23.0716C15.7715 21.6364 14.9086 19.8763 14.5566 17.9829C16.4352 18.4241 18.1553 19.3787 19.5262 20.741C20.809 22.1755 21.6755 23.9355 22.0313 25.8296C20.1506 25.3862 18.4278 24.432 17.0516 23.0716Z" fill="#A28B66" stroke="black" stroke-width="1.57" stroke-miterlimit="10"/>
<path d="M20.0034 19.0517C18.0859 18.9479 16.2335 18.3178 14.6484 17.23C16.2849 16.2228 18.1648 15.6843 20.0845 15.6729C22.0021 15.7766 23.8544 16.4068 25.4395 17.4946C23.8031 18.5018 21.9231 19.0403 20.0034 19.0517Z" fill="#A28B66" stroke="black" stroke-width="1.57" stroke-miterlimit="10"/>
<path d="M19.4353 14.0339C18.0051 15.3184 16.2511 16.1844 14.3643 16.5375C14.8063 14.6644 15.7537 12.9497 17.1026 11.5812C18.5322 10.2939 20.2861 9.42444 22.1736 9.06738C21.7294 10.9426 20.7824 12.6601 19.4353 14.0339Z" fill="#A28B66" stroke="black" stroke-width="1.57" stroke-miterlimit="10"/>
<path d="M10.5508 29.1169L25.8246 18.0236C26.3406 17.8301 26.903 17.7985 27.4373 17.933C27.9716 18.0675 28.4526 18.3618 28.8165 18.7767C30.3987 20.2626 29.3845 21.4025 29.3845 21.4025L15.3784 32.5975L10.5508 29.1169Z" fill="#4E3224" stroke="black" stroke-width="1.57" stroke-linecap="round" stroke-linejoin="round"/>
<path d="M10.9365 33.0148C10.9365 33.0148 12.9852 34.8463 14.4963 33.625C15.6322 32.6683 15.5308 31.3151 14.4963 30.2058C13.2184 28.8217 11.6261 28.3536 10.7742 28.8421C10.5309 28.9363 10.3104 29.0815 10.1274 29.268C9.94442 29.4544 9.80311 29.6779 9.71291 29.9234C9.62271 30.169 9.58568 30.431 9.60429 30.692C9.6229 30.9531 9.69673 31.2071 9.82085 31.4373C10.2975 32.6993 12.3056 34.002 12.8635 32.9639C13.5328 31.7324 11.7783 30.6536 11.7783 30.6536" fill="#4E3224"/>
<path d="M10.9365 33.0148C10.9365 33.0148 12.9852 34.8463 14.4963 33.625C15.6322 32.6683 15.5308 31.3151 14.4963 30.2058C13.2184 28.8217 11.6261 28.3536 10.7742 28.8421C10.5309 28.9363 10.3104 29.0815 10.1274 29.268C9.94442 29.4544 9.80311 29.6779 9.71291 29.9234C9.62271 30.169 9.58568 30.431 9.60429 30.692C9.6229 30.9531 9.69673 31.2071 9.82085 31.4373C10.2975 32.6993 12.3056 34.002 12.8635 32.9639C13.5328 31.7324 11.7783 30.6536 11.7783 30.6536" stroke="black" stroke-width="1.57" stroke-linecap="round" stroke-linejoin="round"/>
</g>
<defs>
<clipPath id="clip0_958_858">
<rect width="30" height="35" fill="white" transform="translate(0.5 0.5)"/>
</clipPath>
</defs>
</svg>
